<?xml version="1.0" standalone="no"?>
<!DOCTYPE svg PUBLIC "-//W3C//DTD SVG 1.1//EN" "http://www.w3.org/Graphics/SVG/1.1/DTD/svg11.dtd" >
<svg xmlns="http://www.w3.org/2000/svg" xmlns:xlink="http://www.w3.org/1999/xlink" version="1.1">
<metadata></metadata>
<defs>
<font id="webfontregular" horiz-adv-x="1050" >
<font-face units-per-em="2048" ascent="1536" descent="-512" />
<missing-glyph horiz-adv-x="434" />
<glyph horiz-adv-x="0" />
<glyph horiz-adv-x="682" />
<glyph unicode=" "  horiz-adv-x="434" />
<glyph unicode="&#x09;" horiz-adv-x="434" />
<glyph unicode="&#xa0;" horiz-adv-x="434" />
<glyph unicode="!" horiz-adv-x="471" d="M115 104q0 56 34.5 91.5t88.5 35.5q53 0 85.5 -35.5t32.5 -91.5q0 -55 -33.5 -91t-89.5 -36q-52 0 -85 36t-33 91zM137 1380h197l-29 -985h-139z" />
<glyph unicode="&#x22;" horiz-adv-x="690" d="M104 1417h179l-35 -491h-111zM410 1417h178l-35 -491h-109z" />
<glyph unicode="#" horiz-adv-x="1017" d="M76 401v121h188l39 297h-178v121h194l54 391h121l-54 -391h215l52 391h120l-51 -391h168v-121h-186l-37 -297h176v-121h-195l-53 -401h-123l54 401h-213l-52 -401h-122l53 401h-170zM385 522h213l39 297h-213z" />
<glyph unicode="$" d="M135 121l49 137q135 -88 293 -88q108 0 176 56.5t68 144.5q0 82 -56.5 138.5t-175.5 104.5q-169 66 -253 148t-84 209t83.5 216.5t223.5 112.5v205h129v-198q149 -5 266 -72l-51 -135q-122 71 -258 71q-109 0 -163 -53t-54 -125q0 -75 56.5 -124t197.5 -109 q163 -67 240 -153.5t77 -219.5q0 -128 -85.5 -226t-238.5 -122v-213h-129v205q-88 1 -172 26t-139 64z" />
<glyph unicode="%" horiz-adv-x="1622" d="M61 938q0 193 92 304.5t232 111.5t222.5 -104.5t82.5 -291.5q0 -202 -90 -310.5t-227 -108.5q-133 0 -222 104t-90 295zM203 946q-3 -131 44 -215t130 -84q86 0 129 82t43 219q0 133 -42 215t-132 82q-81 0 -126.5 -85t-45.5 -214zM358 -25l785 1381h114l-784 -1381h-115 zM930 387q0 194 91.5 305t231.5 111t223 -104.5t83 -292.5q0 -202 -90.5 -311t-227.5 -109q-64 0 -119.5 25.5t-98 74t-67.5 126t-26 175.5zM1071 393q-3 -131 44 -215t130 -84q86 0 129 82.5t43 220.5q0 85 -16.5 149.5t-56.5 106t-101 41.5q-81 0 -126.5 -85t-45.5 -216z " />
<glyph unicode="&#x26;" horiz-adv-x="1239" d="M63 365q0 255 271 403v6q-115 144 -115 289q0 65 23 125.5t65.5 109t110.5 78t151 29.5q132 0 218.5 -80.5t86.5 -212.5q0 -111 -71 -200t-232 -169v-8q219 -253 336 -383q92 140 133 404h164q-59 -345 -198 -510q23 -25 101.5 -110t125.5 -136h-213q-18 18 -59.5 61.5 t-69.5 71.5q-170 -156 -404 -156q-194 0 -309 113t-115 275zM236 391q0 -120 79.5 -199t204.5 -79q84 0 157.5 34t125.5 91q-234 257 -389 436q-178 -115 -178 -283zM383 1081q0 -69 27 -127t77 -123q116 67 173 128.5t57 144.5q0 71 -41 124.5t-121 53.5 q-81 0 -126.5 -58.5t-45.5 -142.5z" />
<glyph unicode="'" horiz-adv-x="385" d="M104 1417h179l-35 -491h-111z" />
<glyph unicode="(" horiz-adv-x="581" d="M131 584q2 483 268 837h140q-256 -346 -256 -839q0 -463 256 -830h-140q-268 353 -268 832z" />
<glyph unicode=")" horiz-adv-x="581" d="M41 -248q256 363 256 836q0 471 -256 833h139q269 -350 269 -833q-2 -481 -269 -836h-139z" />
<glyph unicode="*" horiz-adv-x="849" d="M61 975v139l301 -39v4l-192 252l125 72l127 -287h4l125 289l123 -72l-195 -256v-4l309 41v-139l-309 39v-6l197 -246l-129 -74l-125 287h-4l-131 -289l-117 74l195 250v6z" />
<glyph unicode="+" horiz-adv-x="1220" d="M82 485v123h463v482h131v-482h463v-123h-463v-485h-131v485h-463z" />
<glyph unicode="," horiz-adv-x="423" d="M33 -254q34 93 70 236.5t53 255.5l200 20q-37 -130 -95 -278t-101 -220z" />
<glyph unicode="-" horiz-adv-x="628" d="M61 487v131h506v-131h-506z" />
<glyph unicode="." horiz-adv-x="423" d="M106 106q0 56 34.5 93t88.5 37t87.5 -36.5t33.5 -93.5q0 -56 -34.5 -92.5t-90.5 -36.5q-52 0 -85.5 36.5t-33.5 92.5z" />
<glyph unicode="/" horiz-adv-x="702" d="M-2 -80l569 1485h142l-574 -1485h-137z" />
<glyph unicode="0" d="M74 662q0 328 128.5 510t336.5 182q209 0 324.5 -177.5t115.5 -496.5q0 -338 -121 -520.5t-342 -182.5q-199 0 -319 180.5t-123 504.5zM256 659q0 -256 72.5 -399t197.5 -143q134 0 202.5 147t68.5 408q0 255 -67 398.5t-204 143.5q-121 0 -195.5 -145.5t-74.5 -409.5z " />
<glyph unicode="1" d="M213 1176l291 155h153v-1331h-174v1163h-4l-231 -125z" />
<glyph unicode="2" d="M92 0v111l141 137q142 135 223.5 219.5t149.5 172t95.5 159t27.5 145.5q0 53 -13.5 98t-42.5 82.5t-81.5 58.5t-124.5 21q-149 0 -283 -112l-57 127q72 61 169 98t206 37q103 0 184 -33.5t128 -89.5t71 -123t24 -141q0 -90 -30 -175t-96 -176t-139.5 -170.5 t-192.5 -193.5l-105 -98v-4h596v-150h-850z" />
<glyph unicode="3" d="M86 68l49 137q50 -30 130 -56t165 -26q82 0 143.5 24t94.5 63t48.5 82.5t14.5 88.5q-1 67 -30 119.5t-78 83.5t-109 47t-127 16h-100v135h100q70 0 135.5 22.5t113.5 76t48 127.5q0 87 -58 143.5t-175 56.5q-73 0 -145.5 -26.5t-121.5 -61.5l-49 131q60 42 155 72.5 t195 30.5q185 0 283 -93t98 -225q0 -106 -63 -188.5t-182 -126.5v-4q128 -24 212 -114.5t85 -225.5q0 -81 -32 -152.5t-91.5 -127t-153.5 -88t-209 -32.5q-104 0 -197 27t-149 64z" />
<glyph unicode="4" d="M31 365v116l594 850h194v-827h187v-139h-187v-365h-170v365h-618zM213 504h436v444q0 104 6 209h-6q-58 -110 -110 -196l-326 -453v-4z" />
<glyph unicode="5" d="M86 59l45 138q49 -29 126 -51.5t161 -22.5q131 0 222.5 80t90.5 209q0 135 -95 214t-286 79q-80 0 -186 -13l86 639h637v-151h-508l-51 -342q47 6 108 6q171 0 287 -72q84 -46 137 -134t53 -206q0 -196 -139.5 -325.5t-355.5 -129.5q-101 0 -189 24t-143 58z" />
<glyph unicode="6" d="M70 545q0 190 60.5 343.5t164.5 256.5q168 165 426 196q73 11 131 11v-148q-53 3 -135 -10q-104 -16 -188 -61t-139.5 -109t-89.5 -140t-46 -161h4q51 69 135 112.5t189 43.5q178 0 289.5 -118.5t111.5 -311.5q0 -93 -30.5 -177.5t-86 -150.5t-140.5 -105t-187 -39 q-213 0 -341 154.5t-128 413.5zM248 500q2 -170 79.5 -276.5t215.5 -106.5q115 0 186.5 88t71.5 231q0 141 -75 223t-200 82q-81 0 -152 -44.5t-108 -118.5q-18 -36 -18 -78z" />
<glyph unicode="7" d="M117 1182v149h839v-119l-579 -1212h-187l578 1178v4h-651z" />
<glyph unicode="8" d="M76 336q0 123 69 213.5t195 144.5l-2 6q-108 50 -160.5 129t-52.5 170q0 157 117.5 256t296.5 99q94 0 169.5 -27.5t122.5 -73.5t72 -104.5t25 -122.5q0 -93 -53 -175.5t-168 -135.5v-6q127 -51 197.5 -138.5t70.5 -205.5q0 -172 -129.5 -280t-323.5 -108 q-203 0 -324.5 103.5t-121.5 255.5zM260 360q-5 -104 68.5 -177.5t197.5 -73.5q120 0 193.5 66.5t73.5 170.5q0 114 -74.5 182t-218.5 109q-115 -33 -177.5 -106.5t-62.5 -170.5zM297 1012q-3 -178 254 -246q91 31 147 93t56 149q0 89 -56.5 153t-169.5 64 q-108 0 -169.5 -61t-61.5 -152z" />
<glyph unicode="9" d="M84 881q0 126 56 233.5t161.5 173.5t237.5 66q203 0 321.5 -152t118.5 -411q0 -207 -62 -364t-167 -259q-75 -74 -177 -120t-211 -58q-89 -14 -165 -10v147q41 -4 145 6q170 23 279 129q140 127 176 352h-6q-116 -141 -316 -141q-175 0 -283 117t-108 291zM262 891 q0 -126 70 -204.5t186 -78.5q88 0 156.5 38.5t105.5 101.5q17 31 17 67q0 180 -69.5 291t-205.5 111q-114 0 -187 -91.5t-73 -234.5z" />
<glyph unicode=":" horiz-adv-x="423" d="M109 104q0 57 33.5 93t86.5 36q55 0 88 -35.5t33 -93.5q0 -55 -33.5 -91t-89.5 -36q-52 0 -85 36t-33 91zM109 827q0 57 33.5 93t86.5 36q55 0 88 -35.5t33 -93.5q0 -55 -33.5 -91t-89.5 -36q-52 0 -85 36t-33 91z" />
<glyph unicode=";" horiz-adv-x="423" d="M35 -252q34 93 70 236t53 256l198 20q-36 -130 -94.5 -277.5t-101.5 -220.5zM123 827q0 57 34 93t87 36q55 0 88 -35.5t33 -93.5q0 -55 -33.5 -91t-89.5 -36q-52 0 -85.5 36.5t-33.5 90.5z" />
<glyph unicode="&#x3c;" horiz-adv-x="1220" d="M135 489v111l950 490v-142l-800 -401v-4l800 -402v-141z" />
<glyph unicode="=" horiz-adv-x="1220" d="M82 289v123h1057v-123h-1057zM82 690v123h1057v-123h-1057z" />
<glyph unicode="&#x3e;" horiz-adv-x="1220" d="M135 0v141l807 402v4l-807 401v142l950 -486v-117z" />
<glyph unicode="?" horiz-adv-x="831" d="M104 1323q53 37 132.5 59.5t160.5 22.5q167 0 254.5 -87t87.5 -214q0 -50 -12.5 -96t-40 -92.5t-53 -80.5t-70.5 -87q-126 -148 -117 -304l5 -51h-162l-4 53q-20 178 127 355q75 89 109 152t34 128q0 80 -50 127.5t-145 48.5q-56 0 -112 -17t-94 -46zM246 104q0 57 34 93 t87 36q55 0 87.5 -35.5t32.5 -93.5q0 -55 -33 -91t-89 -36q-52 0 -85.5 36.5t-33.5 90.5z" />
<glyph unicode="@" horiz-adv-x="1509" d="M88 426q0 158 53.5 301t149 251t237.5 172t308 64q175 0 311 -76.5t209.5 -211.5t73.5 -305q0 -222 -107 -355t-256 -133q-67 0 -112 45.5t-42 134.5h-6q-107 -180 -289 -180q-93 0 -157 70t-64 188q0 127 61 238t174 179.5t251 68.5q128 0 219 -43l-70 -371 q-45 -227 62 -230q84 -3 152.5 101t68.5 272q0 230 -131.5 372t-364.5 142q-125 0 -237 -48.5t-195.5 -135.5t-132.5 -216.5t-49 -281.5q0 -253 147.5 -404t378.5 -151q180 0 309 72l33 -88q-157 -82 -364 -82q-126 0 -239 45t-197.5 126.5t-134.5 203.5t-50 266zM532 399 q0 -70 35 -112.5t101 -42.5q85 0 158.5 88t91.5 190l43 230q-40 16 -103 16q-134 0 -230 -109.5t-96 -259.5z" />
<glyph unicode="A" horiz-adv-x="1253" d="M51 0l471 1380h213l471 -1380h-190l-148 434h-489l-143 -434h-185zM416 573h418l-138 398q-29 85 -71 252h-4q-43 -171 -70 -250z" />
<glyph unicode="B" horiz-adv-x="1110" d="M156 4v1356q134 31 325 31q256 0 377 -101q117 -86 117 -243q0 -101 -63.5 -183.5t-170.5 -120.5v-6q52 -12 100 -38.5t91 -67.5t68.5 -103t25.5 -135q0 -167 -119 -276q-138 -129 -475 -129q-158 0 -276 16zM334 135q49 -8 149 -8q73 0 134 14t112 44t80 83.5t29 126.5 q0 90 -49.5 151.5t-128 88.5t-179.5 27h-147v-527zM334 795h162q137 0 217 65.5t80 167.5q0 115 -79.5 170t-221.5 55q-100 0 -158 -12v-446z" />
<glyph unicode="C" horiz-adv-x="1187" d="M74 678q0 161 53 296t147 229.5t228 147t293 52.5q210 0 327 -62l-45 -145q-114 57 -276 57q-246 0 -392.5 -150.5t-146.5 -418.5q0 -257 140 -406t389 -149q175 0 292 57l35 -143q-52 -27 -149 -46.5t-215 -19.5q-147 0 -270.5 46t-215 133t-143 221t-51.5 301z" />
<glyph unicode="D" horiz-adv-x="1363" d="M156 4v1356q188 31 379 31q372 0 559 -172q196 -177 196 -496q0 -339 -198 -537q-98 -97 -255 -147.5t-358 -50.5q-179 0 -323 16zM334 139q60 -8 180 -8q286 0 437 152.5t151 433.5v7q0 245 -140 384q-142 141 -419 141q-124 0 -209 -18v-1092z" />
<glyph unicode="E" horiz-adv-x="1007" d="M154 0v1380h747v-149h-567v-436h534v-148h-534v-497h598v-150h-778z" />
<glyph unicode="F" horiz-adv-x="997" d="M154 0v1380h743v-149h-563v-459h520v-147h-520v-625h-180z" />
<glyph unicode="G" horiz-adv-x="1323" d="M74 682q0 154 52 285t147 226t236 148.5t312 53.5q110 0 202 -19.5t144 -44.5l-45 -145q-125 59 -305 59q-254 0 -404.5 -148.5t-150.5 -406.5q0 -260 144 -408.5t389 -148.5q161 0 237 37v412h-278v143h454v-664q-194 -75 -426 -75q-326 0 -516 182q-90 87 -141 221 t-51 293z" />
<glyph unicode="H" horiz-adv-x="1335" d="M154 0v1380h180v-577h667v577h181v-1380h-181v647h-667v-647h-180z" />
<glyph unicode="I" horiz-adv-x="489" d="M154 0v1380h180v-1380h-180z" />
<glyph unicode="J" horiz-adv-x="757" d="M8 10l25 146q71 -27 151 -27q63 0 107.5 16t78 53.5t50 105t16.5 167.5v909h180v-923q0 -134 -31 -229.5t-89 -149t-130.5 -77.5t-166.5 -24q-112 0 -191 33z" />
<glyph unicode="K" horiz-adv-x="1110" d="M156 0v1380h178v-665h6q47 67 109 147l421 518h222l-500 -585l538 -795h-210l-453 678l-133 -152v-526h-178z" />
<glyph unicode="L" horiz-adv-x="966" d="M154 0v1380h180v-1230h590v-150h-770z" />
<glyph unicode="M" horiz-adv-x="1646" d="M119 0l96 1380h227l236 -667q82 -244 139 -465h4q47 178 148 465l245 667h228l86 -1380h-176l-33 606q-23 444 -23 596h-4q-94 -306 -174 -524l-244 -670h-135l-225 658q-105 314 -158 536h-4q-6 -264 -26 -610l-37 -592h-170z" />
<glyph unicode="N" horiz-adv-x="1347" d="M156 0v1380h196l441 -698q161 -260 245 -449l6 3q-20 230 -20 567v577h168v-1380h-180l-439 700q-172 276 -256 461l-6 -2q13 -226 13 -569v-590h-168z" />
<glyph unicode="O" horiz-adv-x="1411" d="M74 680q0 162 48 298t133 229.5t203 145.5t255 52q187 0 328.5 -89t217.5 -247.5t76 -363.5q0 -173 -50.5 -312.5t-138 -229.5t-203.5 -138t-249 -48q-182 0 -323 88t-219 248t-78 367zM262 684q0 -112 30 -213t85 -178.5t140 -123.5t188 -46q137 0 239 78.5t152.5 207 t50.5 287.5q0 84 -17 164.5t-53 153t-86.5 127.5t-124 87t-159.5 32q-108 0 -194.5 -47.5t-140 -128t-82 -183t-28.5 -217.5z" />
<glyph unicode="P" horiz-adv-x="1089" d="M156 0v1364q166 27 342 27q260 0 387 -115q121 -108 121 -289q0 -185 -107 -295q-71 -74 -180.5 -112.5t-241.5 -38.5q-94 0 -143 12v-553h-178zM334 698q55 -14 147 -14q162 0 254 77t92 216q0 134 -87 203t-238 69q-114 0 -168 -14v-537z" />
<glyph unicode="Q" horiz-adv-x="1411" d="M74 678q0 163 48 299.5t132.5 230t203 145.5t257.5 52q185 0 327 -89.5t217.5 -247.5t75.5 -361q0 -258 -107 -429t-286 -235v-8q224 -57 404 -88l-52 -150q-268 71 -528 160q-62 20 -84 20q-125 5 -234.5 53t-193 134t-132 218.5t-48.5 295.5zM262 682 q0 -150 50.5 -275.5t153 -204.5t239.5 -79t239 78.5t152.5 207t50.5 287.5q0 107 -27.5 206t-80 180t-137.5 129.5t-191 48.5q-109 0 -196.5 -48t-141.5 -129.5t-82.5 -184t-28.5 -216.5z" />
<glyph unicode="R" horiz-adv-x="1101" d="M156 0v1362q163 29 342 29q274 0 399 -113q109 -98 109 -264q0 -129 -72 -220t-186 -130v-7q148 -53 200 -278q75 -320 107 -379h-185q-31 55 -90 330q-31 142 -93.5 202.5t-184.5 65.5h-168v-598h-178zM334 733h182q142 0 226.5 71.5t84.5 190.5q0 129 -85 192.5 t-232 63.5q-122 0 -176 -14v-504z" />
<glyph unicode="S" horiz-adv-x="1009" d="M86 68l47 149q141 -90 318 -90q134 0 211 64.5t77 170.5q0 95 -60 157.5t-200 115.5q-178 65 -271 159.5t-93 233.5q0 163 123.5 269t322.5 106q188 0 303 -68l-49 -145q-104 65 -260 65q-130 0 -195 -62.5t-65 -143.5q0 -93 62.5 -151t211.5 -116q181 -70 266 -163.5 t85 -241.5q0 -81 -30 -152.5t-88 -127t-152 -88t-212 -32.5q-97 0 -195.5 26.5t-156.5 64.5z" />
<glyph unicode="T" horiz-adv-x="1017" d="M-2 1229v151h1022v-151h-422v-1229h-180v1229h-420z" />
<glyph unicode="U" horiz-adv-x="1325" d="M154 567v813h180v-819q0 -220 87.5 -329t233.5 -109q158 0 247 109t89 329v819h180v-807q0 -155 -39 -271.5t-110.5 -186.5t-164.5 -104t-208 -34q-110 0 -197.5 32.5t-155.5 100.5t-105 184t-37 273z" />
<glyph unicode="V" horiz-adv-x="1142" d="M6 1380h195l215 -680q106 -347 147 -516h4q50 206 158 514l233 682h191l-494 -1380h-196z" />
<glyph unicode="W" horiz-adv-x="1732" d="M31 1380h188l164 -698q58 -245 102 -477h4q24 140 113 479l184 696h187l168 -700q73 -308 96 -473h4q27 139 111 477l182 696h182l-391 -1380h-186l-174 719q-70 285 -91 450h-4q-32 -193 -106 -450l-197 -719h-186z" />
<glyph unicode="X" horiz-adv-x="1169" d="M51 0l422 698l-405 682h206l183 -323q85 -150 127 -234h6q49 102 125 234l186 323h207l-420 -671l430 -709h-207l-178 305q-89 145 -158 273h-4q-54 -111 -149 -275l-166 -303h-205z" />
<glyph unicode="Y" horiz-adv-x="1107" d="M25 1380h204l195 -381q113 -231 137 -284h4q13 32 31 70t32 65t39 75t38 74l198 381h201l-461 -792v-588h-180v586z" />
<glyph unicode="Z" horiz-adv-x="1132" d="M61 0v104l764 1121v6h-698v149h932v-108l-762 -1116v-6h772v-150h-1008z" />
<glyph unicode="[" horiz-adv-x="581" d="M166 -229v1634h375v-113h-234v-1409h234v-112h-375z" />
<glyph unicode="\" horiz-adv-x="698" d="M4 1405h139l557 -1485h-139z" />
<glyph unicode="]" horiz-adv-x="581" d="M41 -117h233v1409h-233v113h375v-1634h-375v112z" />
<glyph unicode="^" horiz-adv-x="1220" d="M125 387l422 944h129l422 -944h-144l-342 795h-4l-342 -795h-141z" />
<glyph unicode="_" horiz-adv-x="1024" d="M0 -154h1024v-102h-1024v102z" />
<glyph unicode="`" horiz-adv-x="614" d="M45 1419h197l180 -293h-127z" />
<glyph unicode="a" horiz-adv-x="987" d="M72 262q0 180 154 276q151 94 430 93h12v20q0 29 -3.5 55t-17.5 59.5t-37 57.5q-24 25 -67 41q-41 16 -94 15h-7q-150 0 -260 -74l-41 121q63 39 149.5 62.5t178.5 23.5q88 0 155.5 -23.5t108.5 -61.5t67 -92t36 -109t10 -118v-370q0 -143 14 -238h-162l-14 125h-6 q-45 -64 -124 -106t-179 -42q-96 0 -166.5 42t-103.5 105.5t-33 137.5zM252 283q0 -85 47.5 -128.5t120.5 -43.5q92 0 156 48t88 117q8 27 8 58v172h-31q-389 0 -389 -223z" />
<glyph unicode="b" horiz-adv-x="1165" d="M141 0q9 153 9 256v1198h178v-623h4q49 86 135 133.5t203 47.5q186 0 303 -140t117 -364q0 -128 -38.5 -231.5t-102.5 -167.5t-142.5 -98t-163.5 -34q-225 0 -334 185h-4l-10 -162h-154zM328 397q0 -38 8 -65q25 -94 98.5 -152.5t171.5 -58.5q141 0 221 104t80 277 q0 157 -78.5 262.5t-218.5 105.5q-92 0 -168.5 -60.5t-103.5 -160.5q-10 -38 -10 -76v-176z" />
<glyph unicode="c" horiz-adv-x="917" d="M78 483q0 232 146 380.5t386 148.5q75 0 142.5 -16t107.5 -38l-41 -137q-88 47 -209 47q-164 0 -257 -106.5t-93 -267.5q0 -169 96.5 -270t247.5 -101q117 0 221 47l31 -135q-119 -58 -285 -58q-224 0 -358.5 139t-134.5 367z" />
<glyph unicode="d" horiz-adv-x="1155" d="M78 485q0 237 128 381q129 146 316 146q108 0 185 -42.5t114 -107.5h4v592h179v-1198q0 -120 8 -256h-160l-8 172h-6q-42 -87 -129.5 -141t-204.5 -54q-183 0 -304.5 140.5t-121.5 367.5zM260 489q0 -158 77 -262t216 -104q92 0 166 58.5t98 156.5q8 33 8 78v172 q0 45 -8 76q-21 88 -91.5 147t-168.5 59q-137 0 -217 -107t-80 -274z" />
<glyph unicode="e" horiz-adv-x="1026" d="M78 479q0 150 55 270.5t162 191.5t248 71q93 0 167 -31.5t118 -79.5t73 -112t40 -123.5t11 -118.5q0 -54 -6 -84h-696q3 -173 98 -258.5t242 -85.5q158 0 274 51l33 -129q-139 -64 -332 -64q-226 0 -356.5 137.5t-130.5 364.5zM252 592h526v10q0 32 -6 64q-6 37 -23 77 t-44 70.5t-73 50t-104 19.5q-66 0 -118.5 -27.5t-84 -72t-49.5 -93t-24 -98.5z" />
<glyph unicode="f" horiz-adv-x="598" d="M31 854v137h137v47q0 234 115 346q96 93 241 93q81 0 154 -29l-25 -139q-50 22 -114 22q-193 0 -193 -287v-53h240v-137h-240v-854h-178v854h-137z" />
<glyph unicode="g" horiz-adv-x="1144" d="M78 487q0 122 37.5 223t100.5 166t143 100.5t167 35.5q118 0 194 -49t116 -121h4l6 149h160q-9 -105 -9 -270v-576q0 -169 -34.5 -278t-106.5 -176q-133 -119 -362 -119q-92 0 -182 21.5t-148 60.5l45 139q123 -80 291 -80q147 0 233 84t86 264v109h-4 q-42 -74 -123.5 -120t-191.5 -46q-183 0 -302.5 138t-119.5 345zM260 498q0 -154 77 -255.5t216 -101.5q86 0 154.5 50t95.5 135q14 43 14 96v178q0 51 -10 80q-26 85 -91.5 138.5t-160.5 53.5q-131 0 -213 -102t-82 -272z" />
<glyph unicode="h" horiz-adv-x="1136" d="M150 0v1454h180v-620h4q47 83 129 129q84 49 184 49q44 0 87.5 -11t91.5 -40.5t84 -74.5t59.5 -122t23.5 -174v-590h-180v569q0 131 -54.5 212t-174.5 81q-84 0 -149 -51t-93 -127q-12 -32 -12 -86v-598h-180z" />
<glyph unicode="i" horiz-adv-x="479" d="M127 1270q0 47 31.5 79.5t81.5 32.5q49 0 79.5 -32t30.5 -80q0 -47 -31 -79t-83 -32q-48 0 -78.5 32t-30.5 79zM150 0v991h180v-991h-180z" />
<glyph unicode="j" horiz-adv-x="497" d="M-94 -291q136 10 196 78q38 43 54 121t16 250v833h180v-903q0 -148 -27 -244.5t-92 -162.5q-56 -56 -141.5 -84.5t-165.5 -28.5zM150 1270q0 47 31 79.5t81 32.5t80.5 -32.5t30.5 -79.5t-31 -79t-84 -32q-48 0 -78 32.5t-30 78.5z" />
<glyph unicode="k" horiz-adv-x="960" d="M150 0v1454h178v-917h4q42 59 86 112l293 342h215l-381 -407l436 -584h-221l-340 475l-92 -102v-373h-178z" />
<glyph unicode="l" horiz-adv-x="483" d="M150 0v1454h180v-1454h-180z" />
<glyph unicode="m" horiz-adv-x="1708" d="M141 991h158l8 -162h6q107 183 314 183q98 0 171.5 -54.5t106.5 -144.5h4q40 74 113 129q92 70 217 70q43 0 85.5 -11t87.5 -41.5t78.5 -77t55 -124t21.5 -176.5v-582h-176v559q0 147 -54.5 226t-160.5 79q-74 0 -131 -46.5t-84 -115.5q-15 -51 -15 -90v-612h-176v594 q0 122 -53.5 196t-153.5 74q-79 0 -139 -53.5t-84 -126.5q-14 -35 -14 -88v-596h-176v723q0 83 -9 268z" />
<glyph unicode="n" horiz-adv-x="1136" d="M141 991h160l10 -164h4q41 77 127 131t201 54q45 0 89.5 -11t92.5 -40.5t84.5 -75t60 -122t23.5 -173.5v-590h-180v571q0 131 -54.5 212t-174.5 81q-85 0 -150.5 -53t-91.5 -131q-12 -34 -12 -84v-596h-180v723q0 145 -9 268z" />
<glyph unicode="o" horiz-adv-x="1124" d="M78 487q0 121 38.5 221t105 166t156 102t191.5 36q213 0 345.5 -141t132.5 -367q0 -106 -28.5 -195t-76.5 -149.5t-112 -102.5t-134 -61t-143 -19q-204 0 -339.5 140t-135.5 370zM262 494q0 -164 84 -272.5t215 -108.5q129 0 215 109t86 276q0 66 -17 130.5t-51 121.5 t-93.5 92t-135.5 35t-136 -33.5t-95.5 -89t-53.5 -122t-18 -138.5z" />
<glyph unicode="p" horiz-adv-x="1165" d="M141 991h160l10 -170h4q114 191 353 191q183 0 302.5 -140t119.5 -362q0 -129 -37.5 -232.5t-101.5 -168t-144.5 -98.5t-169.5 -34q-99 0 -180 41.5t-125 114.5h-4v-539h-178v1074q0 112 -9 323zM328 403q0 -42 8 -73q25 -94 99.5 -152.5t170.5 -58.5q140 0 220.5 105 t80.5 278q0 155 -79 260.5t-216 105.5q-94 0 -171 -61t-101 -160q-12 -46 -12 -72v-172z" />
<glyph unicode="q" horiz-adv-x="1153" d="M78 477q0 108 26.5 198.5t71 151.5t103 103.5t121 62t126.5 19.5q110 0 188 -47t117 -123h5l6 149h170q-8 -164 -8 -272v-1125h-179v558h-4q-45 -78 -127.5 -126.5t-195.5 -48.5q-177 0 -298.5 139.5t-121.5 360.5zM260 489q0 -159 75.5 -263.5t217.5 -104.5 q89 0 158.5 51.5t99.5 142.5q14 47 14 88v187q0 43 -8 74q-23 88 -92 146t-166 58q-137 0 -218 -105.5t-81 -273.5z" />
<glyph unicode="r" horiz-adv-x="669" d="M141 991h158l8 -196h6q34 99 110 158t167 59q17 0 49 -4v-170q-18 4 -61 4q-93 0 -158 -63.5t-84 -166.5q-6 -37 -6 -84v-528h-180v682q0 171 -9 309z" />
<glyph unicode="s" horiz-adv-x="811" d="M82 47l43 135q47 -28 112 -48.5t128 -20.5q93 0 141.5 40.5t48.5 106.5q0 63 -41 103t-141 77q-264 97 -264 281q0 124 94 207.5t248 83.5q147 0 241 -62l-43 -131q-94 60 -203 60q-77 0 -120 -39t-43 -97q0 -59 41.5 -94t144.5 -76q132 -49 196 -119.5t64 -177.5 q0 -134 -99 -216.5t-270 -82.5q-158 0 -278 70z" />
<glyph unicode="t" horiz-adv-x="677" d="M37 854v137h153v185l177 53v-238h258v-137h-258v-535q0 -96 31 -144t104 -48q64 0 104 12l8 -137q-73 -25 -159 -25q-125 0 -195 76q-70 79 -70 260v541h-153z" />
<glyph unicode="u" horiz-adv-x="1128" d="M143 412v579h181v-547q0 -317 221 -317q85 0 147 49t90 117q17 43 17 92v606h180v-719q0 -168 8 -272h-160l-10 162h-4q-41 -73 -125 -129t-203 -56q-50 0 -95.5 11.5t-92 42.5t-79.5 78t-54 125t-21 178z" />
<glyph unicode="v" horiz-adv-x="985" d="M27 991h192l195 -555q55 -153 80 -256h6q28 100 84 256l192 555h189l-390 -991h-172z" />
<glyph unicode="w" horiz-adv-x="1507" d="M37 991h184l133 -504q60 -246 72 -315h6q27 116 88 313l162 506h152l153 -495q52 -167 88 -324h6q19 121 76 322l141 497h179l-320 -991h-164l-151 473q-57 180 -88 326h-4q-30 -144 -91 -328l-159 -471h-164z" />
<glyph unicode="x" horiz-adv-x="948" d="M16 0l353 506l-336 485h200l142 -213q39 -55 102 -160h4q43 73 101 162l137 211h196l-337 -479l346 -512h-203l-148 223q-30 44 -106 172h-4q-48 -85 -105 -172l-143 -223h-199z" />
<glyph unicode="y" horiz-adv-x="964" d="M18 991h197l215 -585q39 -102 66 -203h4q6 19 17.5 60t23 78t22.5 69l197 581h190l-270 -706q-100 -263 -175 -402t-165 -219q-114 -96 -221 -115l-45 150q84 26 157 88q92 74 152 201q14 32 14 43q0 15 -14 47z" />
<glyph unicode="z" horiz-adv-x="876" d="M37 0v104l446 584q38 47 131 156v4h-536v143h753v-112l-442 -576q-93 -119 -127 -156v-4h578v-143h-803z" />
<glyph unicode="{" horiz-adv-x="581" d="M57 539v104q51 0 85.5 13t51 37t22.5 47.5t7 54.5q0 60 -16 170q-17 125 -17 172q0 135 81 201.5t218 66.5h41v-113h-34q-88 -1 -126 -45t-38 -131q0 -31 14 -145q16 -102 16 -156q3 -180 -149 -221v-4q149 -40 149 -223q0 -56 -16 -158q-14 -114 -14 -148 q0 -88 39.5 -132.5t124.5 -45.5h34v-112h-43q-136 0 -216.5 66.5t-80.5 213.5q0 64 19 168q14 133 14 166q0 154 -166 154z" />
<glyph unicode="|" horiz-adv-x="489" d="M176 -512v2048h137v-2048h-137z" />
<glyph unicode="}" horiz-adv-x="581" d="M51 -117h35q85 1 124.5 45.5t39.5 132.5q0 34 -14 148q-17 108 -17 158q-3 181 150 223v4q-150 41 -150 221q0 48 17 156q14 114 14 145q0 87 -38 131t-126 45h-35v113h41q137 0 218 -66.5t81 -201.5q0 -54 -16 -172q-17 -117 -17 -170q0 -31 6 -55t22 -47.5t51 -36.5 t87 -13v-104q-51 0 -85.5 -14t-51 -39t-22.5 -48.5t-7 -52.5q0 -45 17 -166q16 -110 16 -168q0 -147 -80.5 -213.5t-216.5 -66.5h-43v112z" />
<glyph unicode="~" horiz-adv-x="1220" d="M100 430q-4 148 64.5 228.5t179.5 80.5q61 0 120 -19.5t171 -72.5q66 -32 97.5 -46t76 -27t80.5 -13q107 0 110 172h121q7 -159 -60 -234t-173 -75q-60 0 -124.5 20t-172.5 70q-11 6 -39 19.5t-39.5 19t-34.5 16t-36 15t-31.5 10.5t-34.5 8t-31 2q-118 0 -121 -174h-123z " />
<glyph unicode="&#xa2;" d="M137 668q0 198 112.5 336.5t299.5 169.5v204h129v-200q126 -3 223 -52l-41 -137q-88 51 -215 51q-147 0 -237.5 -105t-90.5 -261q0 -165 91.5 -262t230.5 -97q131 0 233 52l31 -131q-34 -20 -95 -38t-130 -22v-205h-129v207q-180 19 -295 144q-117 127 -117 346z" />
<glyph unicode="&#xa3;" d="M115 0v102q105 54 169 150t64 209q0 77 -10 143h-211v129h190q-22 134 -22 221q0 180 110.5 290t282.5 110q142 0 223 -51l-39 -136q-76 41 -184 41q-114 0 -168.5 -70t-54.5 -186q0 -98 22 -219h295v-129h-278q11 -149 -8 -229q-34 -130 -142 -221v-4h611v-150h-850z " />
<glyph unicode="&#xa5;" d="M33 1331h192l213 -422q44 -94 82 -186h6q31 87 82 190l221 418h189l-367 -620h267v-101h-320v-149h320v-101h-320v-360h-170v360h-317v101h317v149h-317v101h268z" />
<glyph unicode="&#xa8;" horiz-adv-x="614" d="M14 1272q0 43 30.5 73.5t74.5 30.5q41 0 69.5 -30t28.5 -74q0 -43 -29 -74t-73 -31q-42 0 -71.5 31.5t-29.5 73.5zM395 1272q0 43 30 73.5t73 30.5t71.5 -30t28.5 -74q0 -43 -29 -74t-73 -31q-43 0 -72 31.5t-29 73.5z" />
<glyph unicode="&#xa9;" horiz-adv-x="1386" d="M74 696q0 172 82.5 317t226 229.5t315.5 84.5q169 0 310.5 -84.5t223 -229.5t81.5 -317q0 -174 -81.5 -319.5t-223.5 -230.5t-312 -85q-171 0 -314 85t-225.5 231t-82.5 319zM176 690q0 -151 68 -276t187.5 -197t264.5 -72q142 -2 260.5 70.5t186 200t67.5 280.5 q0 150 -68 276t-186.5 198.5t-261.5 72.5q-144 0 -263 -73t-187 -200t-68 -280zM354 684q0 169 115 275t276 106q74 0 138 -17t88 -38l-25 -80q-91 47 -198 47q-140 0 -213.5 -79.5t-73.5 -207.5q0 -125 76.5 -207t212.5 -82q124 0 206 54l25 -78q-98 -64 -252 -64 q-174 0 -274.5 105.5t-100.5 265.5z" />
<glyph unicode="&#xab;" horiz-adv-x="858" d="M59 516l271 377h145l-272 -377l274 -377h-147zM395 516l271 377h145l-272 -377l272 -377h-145z" />
<glyph unicode="&#xad;" horiz-adv-x="628" d="M61 487v131h506v-131h-506z" />
<glyph unicode="&#xae;" horiz-adv-x="858" d="M84 1063q0 141 101 238.5t247 97.5q143 0 242.5 -97.5t99.5 -238.5t-100 -239.5t-244 -98.5q-145 0 -245.5 98.5t-100.5 239.5zM170 1063q0 -113 75 -190.5t187 -77.5q108 -1 182 77t74 189q0 114 -74 192t-186 78q-108 0 -183 -78.5t-75 -189.5zM299 889v336 q77 10 129 10q76 0 115 -27q35 -24 35 -71q0 -58 -70 -80v-4q44 -13 59 -82q10 -53 25 -82h-82q-10 12 -27 82q-9 51 -69 51h-37v-133h-78zM379 1077h37q78 0 78 49q0 52 -72 52q-27 0 -43 -4v-97z" />
<glyph unicode="&#xb4;" horiz-adv-x="614" d="M207 1126l180 293h197l-250 -293h-127z" />
<glyph unicode="&#xb8;" horiz-adv-x="614" d="M111 -375l30 88q54 -28 111 -28q38 0 63.5 15t24.5 48q0 73 -160 86l96 172h113l-67 -108q58 -6 100.5 -45t42.5 -97q0 -85 -60.5 -125.5t-154.5 -40.5q-78 0 -139 35z" />
<glyph unicode="&#xbb;" horiz-adv-x="858" d="M49 139l273 377l-273 377h144l272 -377l-272 -377h-144zM381 893h145l273 -377l-273 -377h-143l272 377z" />
<glyph unicode="&#xc1;" horiz-adv-x="1253" d="M51 0l471 1380h213l471 -1380h-190l-148 434h-489l-143 -434h-185zM416 573h418l-138 398q-29 85 -71 252h-4q-43 -171 -70 -250zM522 1454l191 240h217l-262 -240h-146z" />
<glyph unicode="&#xc9;" horiz-adv-x="1007" d="M154 0v1380h747v-149h-567v-436h534v-148h-534v-497h598v-150h-778zM428 1454l190 240h218l-263 -240h-145z" />
<glyph unicode="&#xcd;" horiz-adv-x="489" d="M137 1454l191 240h217l-262 -240h-146zM154 0v1380h180v-1380h-180z" />
<glyph unicode="&#xd3;" horiz-adv-x="1411" d="M74 680q0 162 48 298t133 229.5t203 145.5t255 52q187 0 328.5 -89t217.5 -247.5t76 -363.5q0 -173 -50.5 -312.5t-138 -229.5t-203.5 -138t-249 -48q-182 0 -323 88t-219 248t-78 367zM262 684q0 -112 30 -213t85 -178.5t140 -123.5t188 -46q137 0 239 78.5t152.5 207 t50.5 287.5q0 84 -17 164.5t-53 153t-86.5 127.5t-124 87t-159.5 32q-108 0 -194.5 -47.5t-140 -128t-82 -183t-28.5 -217.5zM596 1458l190 240h218l-263 -240h-145z" />
<glyph unicode="&#xda;" horiz-adv-x="1325" d="M154 567v813h180v-819q0 -220 87.5 -329t233.5 -109q158 0 247 109t89 329v819h180v-807q0 -155 -39 -271.5t-110.5 -186.5t-164.5 -104t-208 -34q-110 0 -197.5 32.5t-155.5 100.5t-105 184t-37 273zM561 1454l191 240h217l-262 -240h-146z" />
<glyph unicode="&#xdd;" horiz-adv-x="1107" d="M25 1380h204l195 -381q113 -231 137 -284h4q13 32 31 70t32 65t39 75t38 74l198 381h201l-461 -792v-588h-180v586zM465 1444l190 239h217l-262 -239h-145z" />
<glyph unicode="&#xe1;" horiz-adv-x="987" d="M72 262q0 180 154 275.5t442 93.5v20q0 29 -3.5 55t-17.5 59.5t-37.5 57.5t-66.5 40.5t-101 15.5q-150 0 -260 -74l-41 121q63 39 149.5 62.5t178.5 23.5q88 0 155.5 -23.5t108.5 -61.5t67 -92t36 -109t10 -118v-370q0 -143 14 -238h-162l-14 125h-6q-45 -64 -124 -106 t-179 -42q-96 0 -166.5 42t-103.5 105.5t-33 137.5zM252 283q0 -85 47.5 -128.5t120.5 -43.5q92 0 156 48t88 117q8 27 8 58v172q-420 9 -420 -223zM385 1126l178 293h199l-250 -293h-127z" />
<glyph unicode="&#xe9;" horiz-adv-x="1026" d="M78 479q0 150 55 270.5t162 191.5t248 71q93 0 167 -31.5t118 -79.5t73 -112t40 -123.5t11 -118.5q0 -54 -6 -84h-696q3 -173 98 -258.5t242 -85.5q158 0 274 51l33 -129q-139 -64 -332 -64q-226 0 -356.5 137.5t-130.5 364.5zM252 592h526q1 37 -5.5 74t-23.5 77 t-44 70.5t-73 50t-104 19.5q-66 0 -118.5 -27.5t-84 -72t-49.5 -93t-24 -98.5zM442 1126l181 293h196l-250 -293h-127z" />
<glyph unicode="&#xed;" horiz-adv-x="479" d="M139 1126l180 293h197l-250 -293h-127zM150 0v991h180v-991h-180z" />
<glyph unicode="&#xf3;" horiz-adv-x="1124" d="M78 487q0 121 38.5 221t105 166t156 102t191.5 36q213 0 345.5 -141t132.5 -367q0 -106 -28.5 -195t-76.5 -149.5t-112 -102.5t-134 -61t-143 -19q-204 0 -339.5 140t-135.5 370zM262 494q0 -164 84 -272.5t215 -108.5q129 0 215 109t86 276q0 66 -17 130.5t-51 121.5 t-93.5 92t-135.5 35t-136 -33.5t-95.5 -89t-53.5 -122t-18 -138.5zM455 1126l178 293h198l-249 -293h-127z" />
<glyph unicode="&#xfa;" horiz-adv-x="1128" d="M143 412v579h181v-547q0 -317 221 -317q85 0 147 49t90 117q17 43 17 92v606h180v-719q0 -168 8 -272h-160l-10 162h-4q-41 -73 -125 -129t-203 -56q-50 0 -95.5 11.5t-92 42.5t-79.5 78t-54 125t-21 178zM477 1126l180 293h197l-250 -293h-127z" />
<glyph unicode="&#xfd;" horiz-adv-x="964" d="M18 991h197l215 -585q39 -102 66 -203h4q6 19 17.5 60t23 78t22.5 69l197 581h190l-270 -706q-100 -263 -175 -402t-165 -219q-114 -96 -221 -115l-45 150q84 26 157 88q92 74 152 201q14 32 14 43q0 15 -14 47zM406 1126l178 293h198l-250 -293h-126z" />
<glyph unicode="&#x100;" horiz-adv-x="1253" d="M51 0l471 1380h213l471 -1380h-190l-148 434h-489l-143 -434h-185zM379 1501v113h491v-113h-491zM416 573h418l-138 398q-29 85 -71 252h-4q-43 -171 -70 -250z" />
<glyph unicode="&#x101;" horiz-adv-x="987" d="M72 262q0 180 154 275.5t442 93.5v20q0 29 -3.5 55t-17.5 59.5t-37.5 57.5t-66.5 40.5t-101 15.5q-150 0 -260 -74l-41 121q63 39 149.5 62.5t178.5 23.5q88 0 155.5 -23.5t108.5 -61.5t67 -92t36 -109t10 -118v-370q0 -143 14 -238h-162l-14 125h-6q-45 -64 -124 -106 t-179 -42q-96 0 -166.5 42t-103.5 105.5t-33 137.5zM252 283q0 -85 47.5 -128.5t120.5 -43.5q92 0 156 48t88 117q8 27 8 58v172q-420 9 -420 -223zM264 1200v117h461v-117h-461z" />
<glyph unicode="&#x102;" horiz-adv-x="1253" d="M51 0l471 1380h213l471 -1380h-190l-148 434h-489l-143 -434h-185zM371 1673h106q9 -42 44.5 -71t103.5 -29q130 0 149 100h105q-3 -97 -66.5 -157t-189.5 -60q-124 0 -186.5 59.5t-65.5 157.5zM416 573h418l-138 398q-29 85 -71 252h-4q-43 -171 -70 -250z" />
<glyph unicode="&#x103;" horiz-adv-x="987" d="M72 262q0 180 154 275.5t442 93.5v20q0 29 -3.5 55t-17.5 59.5t-37.5 57.5t-66.5 40.5t-101 15.5q-150 0 -260 -74l-41 121q63 39 149.5 62.5t178.5 23.5q88 0 155.5 -23.5t108.5 -61.5t67 -92t36 -109t10 -118v-370q0 -143 14 -238h-162l-14 125h-6q-45 -64 -124 -106 t-179 -42q-96 0 -166.5 42t-103.5 105.5t-33 137.5zM240 1397h106q9 -62 48 -102t98 -40q68 0 106 41.5t43 100.5h107q0 -116 -69.5 -186t-184.5 -70q-126 0 -190 74.5t-64 181.5zM252 283q0 -85 47.5 -128.5t120.5 -43.5q92 0 156 48t88 117q8 27 8 58v172 q-420 9 -420 -223z" />
<glyph unicode="&#x104;" horiz-adv-x="1253" d="M51 0l471 1380h213l473 -1380l-75 -4q-109 -109 -109 -191q0 -50 29 -78t75 -28q51 0 93 20l28 -92q-30 -23 -77 -36t-87 -13q-88 0 -140 46t-52 132q0 110 121 252l-146 426h-489l-141 -434h-187zM416 573h418l-138 398q-29 85 -71 252h-4q-43 -171 -70 -250z" />
<glyph unicode="&#x105;" horiz-adv-x="987" d="M72 262q0 180 154 275.5t442 93.5v20q0 29 -3.5 55t-17.5 59.5t-37.5 57.5t-66.5 40.5t-101 15.5q-150 0 -260 -74l-41 121q63 39 149.5 62.5t178.5 23.5q88 0 155.5 -23.5t108.5 -61.5t67 -92t36 -109t10 -118v-370q0 -150 16 -238h-51q-30 -40 -55 -94.5t-25 -102.5 q0 -51 26.5 -76.5t71.5 -25.5q50 0 95 20l28 -94q-69 -49 -170 -49q-81 0 -131.5 46t-50.5 128q0 111 98 254l-14 119h-6q-45 -64 -124 -106t-179 -42q-96 0 -166.5 42t-103.5 105.5t-33 137.5zM252 283q0 -85 47.5 -128.5t120.5 -43.5q92 0 156 48t88 117q8 24 8 58v172 q-420 9 -420 -223z" />
<glyph unicode="&#x106;" horiz-adv-x="1187" d="M74 678q0 161 53 296t147 229.5t228 147t293 52.5q210 0 327 -62l-45 -145q-114 57 -276 57q-246 0 -392.5 -150.5t-146.5 -418.5q0 -257 140 -406t389 -149q175 0 292 57l35 -143q-52 -27 -149 -46.5t-215 -19.5q-147 0 -270.5 46t-215 133t-143 221t-51.5 301z M629 1458l190 240h217l-262 -240h-145z" />
<glyph unicode="&#x107;" horiz-adv-x="917" d="M78 483q0 232 146 380.5t386 148.5q75 0 142.5 -16t107.5 -38l-41 -137q-88 47 -209 47q-164 0 -257 -106.5t-93 -267.5q0 -169 96.5 -270t247.5 -101q117 0 221 47l31 -135q-119 -58 -285 -58q-224 0 -358.5 139t-134.5 367zM438 1126l180 293h197l-250 -293h-127z" />
<glyph unicode="&#x108;" horiz-adv-x="1187" d="M74 678q0 161 53 296t147 229.5t228 147t293 52.5q210 0 327 -62l-45 -145q-114 57 -276 57q-246 0 -392.5 -150.5t-146.5 -418.5q0 -257 140 -406t389 -149q175 0 292 57l35 -143q-52 -27 -149 -46.5t-215 -19.5q-147 0 -270.5 46t-215 133t-143 221t-51.5 301z M434 1462l209 234h137l215 -234h-151l-129 142h-4l-131 -142h-146z" />
<glyph unicode="&#x109;" horiz-adv-x="917" d="M78 483q0 232 146 380.5t386 148.5q75 0 142.5 -16t107.5 -38l-41 -137q-88 47 -209 47q-164 0 -257 -106.5t-93 -267.5q0 -169 96.5 -270t247.5 -101q117 0 221 47l31 -135q-119 -58 -285 -58q-224 0 -358.5 139t-134.5 367zM276 1126l193 293h125l197 -293h-138 l-121 193h-4l-116 -193h-136z" />
<glyph unicode="&#x10a;" horiz-adv-x="1187" d="M74 678q0 161 53 296t147 229.5t228 147t293 52.5q210 0 327 -62l-45 -145q-114 57 -276 57q-246 0 -392.5 -150.5t-146.5 -418.5q0 -257 140 -406t389 -149q175 0 292 57l35 -143q-52 -27 -149 -46.5t-215 -19.5q-147 0 -270.5 46t-215 133t-143 221t-51.5 301z M612 1577q0 40 30.5 71t72.5 31q41 0 69.5 -31t28.5 -71q0 -42 -29 -73t-71 -31t-71.5 31t-29.5 73z" />
<glyph unicode="&#x10b;" horiz-adv-x="917" d="M78 483q0 232 146 380.5t386 148.5q75 0 142.5 -16t107.5 -38l-41 -137q-88 47 -209 47q-164 0 -257 -106.5t-93 -267.5q0 -169 96.5 -270t247.5 -101q117 0 221 47l31 -135q-119 -58 -285 -58q-224 0 -358.5 139t-134.5 367zM438 1272q0 44 31 75t74 31t71.5 -31 t28.5 -75q0 -43 -29 -74t-73 -31q-43 0 -73 31.5t-30 73.5z" />
<glyph unicode="&#x10c;" horiz-adv-x="1187" d="M74 678q0 161 53 296t147 229.5t228 147t293 52.5q210 0 327 -62l-45 -145q-114 57 -276 57q-246 0 -392.5 -150.5t-146.5 -418.5q0 -257 140 -406t389 -149q175 0 292 57l35 -143q-52 -27 -149 -46.5t-215 -19.5q-147 0 -270.5 46t-215 133t-143 221t-51.5 301z M440 1694h152l131 -142h4l129 142h145l-208 -234h-138z" />
<glyph unicode="&#x10d;" horiz-adv-x="917" d="M78 483q0 232 146 380.5t386 148.5q75 0 142.5 -16t107.5 -38l-41 -137q-88 47 -209 47q-164 0 -257 -106.5t-93 -267.5q0 -169 96.5 -270t247.5 -101q117 0 221 47l31 -135q-119 -58 -285 -58q-224 0 -358.5 139t-134.5 367zM276 1419h138l121 -194h4l120 194h136 l-193 -293h-129z" />
<glyph unicode="&#x10e;" horiz-adv-x="1363" d="M156 4v1356q188 31 379 31q372 0 559 -172q196 -177 196 -496q0 -339 -198 -537q-98 -97 -255 -147.5t-358 -50.5q-179 0 -323 16zM334 139q60 -8 180 -8q286 0 437 152.5t151 433.5q2 250 -140 391t-419 141q-124 0 -209 -18v-1092zM348 1692h152l131 -142h4l129 142 h145l-209 -234h-137z" />
<glyph unicode="&#x10f;" horiz-adv-x="1175" d="M78 481q-1 240 128 385.5t316 145.5q108 0 185 -42.5t114 -107.5h4v592h179v-1198q0 -120 8 -256h-160l-8 172h-6q-42 -87 -129.5 -141t-204.5 -54q-183 0 -304.5 140.5t-121.5 363.5zM260 489q0 -158 77 -262t216 -104q92 0 166 58.5t98 156.5q8 33 8 78v172q0 45 -8 76 q-21 88 -91.5 147t-168.5 59q-137 0 -217 -107t-80 -274zM1096 1128q73 82 73 183q0 37 -18 73t-45 60l129 29q30 -19 52 -60.5t22 -89.5q0 -146 -133 -252q-3 -3 -5 -4z" />
<glyph unicode="&#x110;" horiz-adv-x="1374" d="M-2 629v143h168v594q188 31 379 31q376 0 557 -172q196 -174 196 -502q0 -338 -198 -539q-98 -97 -254.5 -147.5t-356.5 -50.5q-165 0 -323 14v629h-168zM344 137q60 -8 178 -8q286 0 437 152.5t151 439.5q2 254 -139.5 394t-417.5 140q-124 0 -209 -18v-465h369v-143 h-369v-492z" />
<glyph unicode="&#x111;" horiz-adv-x="1155" d="M78 481q-1 240 128 385.5t316 145.5q108 0 185 -42.5t114 -107.5h4v268h-403v113h403v211h179v-211h159v-113h-159v-874q0 -120 8 -256h-160l-8 172h-6q-42 -87 -129.5 -141t-204.5 -54q-183 0 -304.5 140.5t-121.5 363.5zM260 489q0 -158 77 -262t216 -104 q92 0 166 58.5t98 156.5q8 33 8 78v172q0 45 -8 76q-21 88 -91.5 147t-168.5 59q-137 0 -217 -107t-80 -274z" />
<glyph unicode="&#x112;" horiz-adv-x="1007" d="M154 0v1380h747v-149h-567v-436h534v-148h-534v-497h598v-150h-778zM285 1501v113h491v-113h-491z" />
<glyph unicode="&#x113;" horiz-adv-x="1026" d="M78 479q0 150 55 270.5t162 191.5t248 71q93 0 167 -31.5t118 -79.5t73 -112t40 -123.5t11 -118.5q0 -54 -6 -84h-696q3 -173 98 -258.5t242 -85.5q158 0 274 51l33 -129q-139 -64 -332 -64q-226 0 -356.5 137.5t-130.5 364.5zM252 592h526q1 37 -5.5 74t-23.5 77 t-44 70.5t-73 50t-104 19.5q-66 0 -118.5 -27.5t-84 -72t-49.5 -93t-24 -98.5zM289 1200v117h461v-117h-461z" />
<glyph unicode="&#x114;" horiz-adv-x="1007" d="M154 0v1380h747v-149h-567v-436h534v-148h-534v-497h598v-150h-778zM266 1690h107q9 -42 44 -71.5t103 -29.5q131 0 150 101h104q-3 -97 -66.5 -157t-189.5 -60q-124 0 -186.5 59.5t-65.5 157.5z" />
<glyph unicode="&#x115;" horiz-adv-x="1026" d="M78 479q0 150 55 270.5t162 191.5t248 71q93 0 167 -31.5t118 -79.5t73 -112t40 -123.5t11 -118.5q0 -54 -6 -84h-696q3 -173 98 -258.5t242 -85.5q158 0 274 51l33 -129q-139 -64 -332 -64q-226 0 -356.5 137.5t-130.5 364.5zM252 592h526q1 37 -5.5 74t-23.5 77 t-44 70.5t-73 50t-104 19.5q-66 0 -118.5 -27.5t-84 -72t-49.5 -93t-24 -98.5zM264 1397h107q9 -63 47.5 -102.5t97.5 -39.5q69 0 107 41.5t43 100.5h106q0 -116 -69.5 -186t-184.5 -70q-126 0 -190 74.5t-64 181.5z" />
<glyph unicode="&#x116;" horiz-adv-x="1007" d="M154 0v1380h747v-149h-567v-436h534v-148h-534v-497h598v-150h-778zM412 1581q0 40 30 71t72 31q41 0 69.5 -31t28.5 -71q0 -42 -29 -73t-71 -31t-71 31t-29 73z" />
<glyph unicode="&#x117;" horiz-adv-x="1026" d="M78 479q0 150 55 270.5t162 191.5t248 71q93 0 167 -31.5t118 -79.5t73 -112t40 -123.5t11 -118.5q0 -54 -6 -84h-696q3 -173 98 -258.5t242 -85.5q158 0 274 51l33 -129q-139 -64 -332 -64q-226 0 -356.5 137.5t-130.5 364.5zM252 592h526q1 37 -5.5 74t-23.5 77 t-44 70.5t-73 50t-104 19.5q-66 0 -118.5 -27.5t-84 -72t-49.5 -93t-24 -98.5zM418 1272q0 44 30.5 75t73.5 31t72 -31t29 -75q0 -43 -29 -74t-74 -31q-43 0 -72.5 31.5t-29.5 73.5z" />
<glyph unicode="&#x118;" horiz-adv-x="1007" d="M154 0v1380h747v-149h-567v-436h534v-148h-534v-497h598v-150q-5 0 -16 -1t-17 -1q-69 -44 -118.5 -103t-49.5 -112q0 -39 25.5 -60.5t66.5 -21.5q49 0 90 16l29 -96q-70 -43 -166 -43q-87 0 -137.5 43.5t-50.5 122.5q0 76 50 144t116 112h-600z" />
<glyph unicode="&#x119;" horiz-adv-x="1026" d="M78 479q0 150 55 270.5t162 191.5t248 71q93 0 167 -31.5t118 -79.5t73 -112t40 -123.5t11 -118.5q0 -57 -6 -84h-696q3 -173 98 -258.5t242 -85.5q154 0 274 51l31 -129q-7 -3 -92 -35q-68 -29 -131.5 -94.5t-63.5 -124.5q0 -42 24.5 -64t59.5 -22q55 0 96 20l29 -92 q-67 -49 -166 -49q-84 0 -133 42t-49 118q0 69 44.5 133.5t102.5 103.5v3q-9 0 -27 -1.5t-28 -1.5q-223 1 -353 139t-130 363zM254 592h524q1 37 -5.5 74t-23.5 77t-44 70.5t-72 50t-103 19.5q-66 0 -118.5 -27.5t-84 -72t-49.5 -93t-24 -98.5z" />
<glyph unicode="&#x11a;" horiz-adv-x="1007" d="M154 0v1380h747v-149h-567v-436h534v-148h-534v-497h598v-150h-778zM244 1688h151l131 -142h4l129 142h146l-209 -234h-137z" />
<glyph unicode="&#x11b;" horiz-adv-x="1026" d="M78 479q0 150 55 270.5t162 191.5t248 71q93 0 167 -31.5t118 -79.5t73 -112t40 -123.5t11 -118.5q0 -54 -6 -84h-696q3 -173 98 -258.5t242 -85.5q158 0 274 51l33 -129q-139 -64 -332 -64q-226 0 -356.5 137.5t-130.5 364.5zM252 592h526q1 37 -5.5 74t-23.5 77 t-44 70.5t-73 50t-104 19.5q-66 0 -118.5 -27.5t-84 -72t-49.5 -93t-24 -98.5zM258 1419h137l121 -194h4l121 194h135l-192 -293h-129z" />
<glyph unicode="&#x11c;" horiz-adv-x="1323" d="M74 682q0 154 52 285t147 226t236 148.5t312 53.5q110 0 202 -19.5t144 -44.5l-45 -145q-125 59 -305 59q-254 0 -404.5 -148.5t-150.5 -406.5q0 -260 144 -408.5t389 -148.5q161 0 237 37v412h-278v143h454v-664q-194 -75 -426 -75q-326 0 -516 182q-90 87 -141 221 t-51 293zM459 1460l209 234h137l215 -234h-152l-129 142h-4l-131 -142h-145z" />
<glyph unicode="&#x11d;" horiz-adv-x="1144" d="M78 487q0 122 37.5 223t100.5 166t143 100.5t167 35.5q118 0 194 -49t116 -121h4l6 149h160q-9 -105 -9 -270v-576q0 -169 -34.5 -278t-106.5 -176q-133 -119 -362 -119q-92 0 -182 21.5t-148 60.5l45 139q123 -80 291 -80q147 0 233 84t86 264v109h-4 q-42 -74 -123.5 -120t-191.5 -46q-183 0 -302.5 138t-119.5 345zM260 498q0 -154 77 -255.5t216 -101.5q86 0 154.5 50t95.5 135q14 43 14 96v178q0 51 -10 80q-26 85 -91.5 138.5t-160.5 53.5q-131 0 -213 -102t-82 -272zM315 1133l193 292h125l196 -292h-137l-119 192h-4 l-118 -192h-136z" />
<glyph unicode="&#x11e;" horiz-adv-x="1323" d="M74 682q0 154 52 285t147 226t236 148.5t312 53.5q110 0 202 -19.5t144 -44.5l-45 -145q-125 59 -305 59q-254 0 -404.5 -148.5t-150.5 -406.5q0 -260 144 -408.5t389 -148.5q161 0 237 37v412h-278v143h454v-664q-194 -75 -426 -75q-326 0 -516 182q-90 87 -141 221 t-51 293zM473 1694h107q9 -42 44 -71.5t103 -29.5q128 0 147 101h105q-3 -97 -66.5 -157t-189.5 -60q-123 0 -185 59.5t-65 157.5z" />
<glyph unicode="&#x11f;" horiz-adv-x="1144" d="M78 487q0 122 37.5 223t100.5 166t143 100.5t167 35.5q118 0 194 -49t116 -121h4l6 149h160q-9 -105 -9 -270v-576q0 -169 -34.5 -278t-106.5 -176q-133 -119 -362 -119q-92 0 -182 21.5t-148 60.5l45 139q123 -80 291 -80q147 0 233 84t86 264v109h-4 q-42 -74 -123.5 -120t-191.5 -46q-183 0 -302.5 138t-119.5 345zM260 498q0 -154 77 -255.5t216 -101.5q86 0 154.5 50t95.5 135q14 43 14 96v178q0 51 -10 80q-26 85 -91.5 138.5t-160.5 53.5q-131 0 -213 -102t-82 -272zM303 1397h107q9 -63 47.5 -102.5t97.5 -39.5 q69 0 107 41.5t43 100.5h106q0 -116 -69.5 -186t-184.5 -70q-126 0 -190 74.5t-64 181.5z" />
<glyph unicode="&#x120;" horiz-adv-x="1323" d="M74 682q0 154 52 285t147 226t236 148.5t312 53.5q110 0 202 -19.5t144 -44.5l-45 -145q-125 59 -305 59q-254 0 -404.5 -148.5t-150.5 -406.5q0 -260 144 -408.5t389 -148.5q161 0 237 37v412h-278v143h454v-664q-194 -75 -426 -75q-326 0 -516 182q-90 87 -141 221 t-51 293zM639 1577q0 40 30 71t72 31q41 0 70 -31t29 -71q0 -42 -29.5 -73t-71.5 -31t-71 31t-29 73z" />
<glyph unicode="&#x121;" horiz-adv-x="1144" d="M78 487q0 122 37.5 223t100.5 166t143 100.5t167 35.5q118 0 194 -49t116 -121h4l6 149h160q-9 -105 -9 -270v-576q0 -169 -34.5 -278t-106.5 -176q-133 -119 -362 -119q-92 0 -182 21.5t-148 60.5l45 139q123 -80 291 -80q147 0 233 84t86 264v109h-4 q-42 -74 -123.5 -120t-191.5 -46q-183 0 -302.5 138t-119.5 345zM260 498q0 -154 77 -255.5t216 -101.5q86 0 154.5 50t95.5 135q14 43 14 96v178q0 51 -10 80q-26 85 -91.5 138.5t-160.5 53.5q-131 0 -213 -102t-82 -272zM467 1280q0 43 30.5 73.5t73.5 30.5 q42 0 71.5 -30.5t29.5 -73.5q0 -44 -29 -75t-74 -31q-44 0 -73 31t-29 75z" />
<glyph unicode="&#x122;" horiz-adv-x="1323" d="M74 682q0 154 52 285t147 226t236 148.5t312 53.5q110 0 202 -19.5t144 -44.5l-45 -145q-125 59 -305 59q-254 0 -404.5 -148.5t-150.5 -406.5q0 -260 144 -408.5t389 -148.5q161 0 237 37v412h-278v143h454v-664q-194 -75 -426 -75q-326 0 -516 182q-90 87 -141 221 t-51 293zM575 -371q66 10 110 43.5t44 89.5q0 66 -70 125l134 29q34 -22 57.5 -63t23.5 -89q0 -54 -23 -96t-62 -67t-84 -39t-95 -17z" />
<glyph unicode="&#x123;" horiz-adv-x="1144" d="M78 487q0 122 37.5 223t100.5 166t143 100.5t167 35.5q118 0 194 -49t116 -121h4l6 149h160q-9 -105 -9 -270v-576q0 -169 -34.5 -278t-106.5 -176q-133 -119 -362 -119q-92 0 -182 21.5t-148 60.5l45 139q123 -80 291 -80q147 0 233 84t86 264v109h-4 q-42 -74 -123.5 -120t-191.5 -46q-183 0 -302.5 138t-119.5 345zM260 498q0 -154 77 -255.5t216 -101.5q86 0 154.5 50t95.5 135q14 43 14 96v178q0 51 -10 80q-26 85 -91.5 138.5t-160.5 53.5q-131 0 -213 -102t-82 -272zM428 1241q0 69 41 117t98 69t127 25l33 -76 q-71 -10 -115.5 -42.5t-44.5 -90.5q0 -67 72 -121l-131 -26q-33 20 -56.5 59t-23.5 86z" />
<glyph unicode="&#x124;" horiz-adv-x="1335" d="M154 0v1380h180v-577h667v577h181v-1380h-181v647h-667v-647h-180zM389 1454l209 234h137l215 -234h-151l-129 141h-4l-131 -141h-146z" />
<glyph unicode="&#x125;" horiz-adv-x="1136" d="M-33 1493l209 233h137l215 -233h-151l-129 141h-4l-131 -141h-146zM150 0v1454h180v-620h4q47 83 129 129q84 49 184 49q44 0 87.5 -11t91.5 -40.5t84 -74.5t59.5 -122t23.5 -174v-590h-180v569q0 131 -54.5 212t-174.5 81q-84 0 -149 -51t-93 -127q-12 -32 -12 -86v-598 h-180z" />
<glyph unicode="&#x126;" horiz-adv-x="1345" d="M43 981v119h117v280h180v-280h666v280h180v-280h117v-119h-117v-981h-180v616h-666v-616h-180v981h-117zM340 772h666v209h-666v-209z" />
<glyph unicode="&#x127;" horiz-adv-x="1136" d="M-8 1130v113h158v211h180v-211h397v-113h-397v-296h4q47 83 129 129q84 49 184 49q44 0 87.5 -11t91.5 -40.5t84 -74.5t59.5 -122t23.5 -174v-590h-180v569q0 131 -54.5 212t-174.5 81q-84 0 -149 -51t-93 -127q-12 -32 -12 -86v-598h-180v1130h-158z" />
<glyph unicode="&#x128;" horiz-adv-x="489" d="M-8 1464q-2 95 36 152t103 57q21 0 43 -6.5t36 -13t42 -21.5q68 -37 98 -37q25 0 38.5 16.5t17.5 63.5h94q3 -198 -138 -198q-48 0 -124 39q-7 3 -21.5 11t-21 11.5t-17.5 8t-19.5 6t-17.5 1.5q-43 0 -53 -90h-96zM154 0v1380h180v-1380h-180z" />
<glyph unicode="&#x129;" horiz-adv-x="479" d="M-12 1161q-3 99 34.5 156t104.5 57q21 0 44.5 -7.5t36.5 -13.5t46 -24q64 -35 88 -35q25 0 38.5 19t16.5 67h97q3 -206 -140 -206q-50 0 -127 45q-61 34 -88 34q-47 0 -53 -92h-98zM150 0v991h180v-991h-180z" />
<glyph unicode="&#x12a;" horiz-adv-x="489" d="M0 1501v113h492v-113h-492zM154 0v1380h180v-1380h-180z" />
<glyph unicode="&#x12b;" horiz-adv-x="479" d="M10 1200v117h461v-117h-461zM150 0v991h180v-991h-180z" />
<glyph unicode="&#x12c;" horiz-adv-x="489" d="M-8 1686h106q9 -42 44.5 -71.5t103.5 -29.5q128 0 147 101h105q-3 -97 -67 -157.5t-189 -60.5q-123 0 -185 60t-65 158zM154 0v1380h180v-1380h-180z" />
<glyph unicode="&#x12d;" horiz-adv-x="479" d="M-8 1397h106q9 -62 48 -102t98 -40q68 0 106 41.5t43 100.5h107q0 -116 -69.5 -186t-184.5 -70q-126 0 -190 74.5t-64 181.5zM150 0v991h180v-991h-180z" />
<glyph unicode="&#x12e;" horiz-adv-x="489" d="M57 -252q0 100 97 252v1380h180v-1380h-62q-84 -117 -84 -201q0 -51 29.5 -78.5t75.5 -27.5q51 0 92 18l29 -94q-31 -22 -78 -34.5t-88 -12.5q-87 0 -139 46t-52 132z" />
<glyph unicode="&#x12f;" horiz-adv-x="479" d="M51 -252q0 105 99 252v991h180v-991h-64q-84 -117 -84 -201q0 -51 29.5 -78.5t75.5 -27.5q51 0 92 18l29 -94q-31 -22 -78 -34.5t-88 -12.5q-87 0 -139 46t-52 132zM125 1282q0 48 32.5 81.5t82.5 33.5t81 -33.5t31 -81.5t-31 -80.5t-85 -32.5q-48 0 -79.5 33t-31.5 80z " />
<glyph unicode="&#x130;" horiz-adv-x="489" d="M145 1581q0 40 30.5 71t72.5 31q41 0 69.5 -31t28.5 -71q0 -42 -29 -73t-71 -31t-71.5 31t-29.5 73zM154 0v1380h180v-1380h-180z" />
<glyph unicode="&#x131;" horiz-adv-x="479" d="M150 0v991h180v-991h-180z" />
<glyph unicode="&#x132;" horiz-adv-x="1247" d="M154 0v1380h180v-1380h-180zM498 10l26 146q71 -27 152 -27q63 0 107.5 16t78 54t50 106t16.5 168v907h180v-923q0 -134 -31 -229.5t-89.5 -149t-131 -77.5t-166.5 -24q-110 0 -192 33z" />
<glyph unicode="&#x133;" horiz-adv-x="976" d="M127 1270q0 47 31.5 79.5t81.5 32.5q49 0 79.5 -32t30.5 -80q0 -47 -31 -79t-83 -32q-48 0 -78.5 32t-30.5 79zM150 0v991h180v-991h-180zM385 -291q136 10 197 76q38 44 53.5 122t15.5 251v833h180v-903q0 -149 -27 -245t-91 -162q-56 -56 -142 -84.5t-168 -28.5z M629 1270q0 47 31 79.5t81 32.5t80.5 -32.5t30.5 -79.5t-31 -79t-84 -32q-48 0 -78 32.5t-30 78.5z" />
<glyph unicode="&#x134;" horiz-adv-x="757" d="M8 10l25 146q71 -27 151 -27q63 0 107.5 16t78 53.5t50 105t16.5 167.5v909h180v-923q0 -134 -31 -229.5t-89 -149t-130.5 -77.5t-166.5 -24q-112 0 -191 33zM240 1454l209 234h137l215 -234h-152l-129 141h-4l-131 -141h-145z" />
<glyph unicode="&#x135;" horiz-adv-x="497" d="M-94 -291q136 10 196 78q38 43 54 121t16 250v833h180v-903q0 -148 -27 -244.5t-92 -162.5q-56 -56 -141.5 -84.5t-165.5 -28.5zM-8 1112l192 293h125l197 -293h-137l-119 193h-4l-119 -193h-135z" />
<glyph unicode="&#x136;" horiz-adv-x="1110" d="M156 0v1380h178v-665h6q47 67 109 147l421 518h222l-500 -585l538 -795h-210l-453 678l-133 -152v-526h-178zM406 -367q66 10 109.5 44t43.5 90q0 65 -70 124l134 29q34 -22 58 -62.5t24 -88.5q0 -54 -23 -96t-62 -67.5t-84.5 -39.5t-95.5 -17z" />
<glyph unicode="&#x137;" horiz-adv-x="960" d="M150 0v1454h178v-917h4q42 59 86 112l293 342h215l-381 -407l436 -584h-221l-340 475l-92 -102v-373h-178zM328 -371q66 10 109.5 43.5t43.5 89.5q0 35 -19.5 68.5t-49.5 56.5l133 29q34 -22 58 -63t24 -89q0 -71 -41 -121t-98 -72t-126 -26z" />
<glyph unicode="&#x138;" horiz-adv-x="960" d="M150 0v991h178v-454h4q42 59 86 112l293 342h215l-381 -407l436 -584h-221l-340 475l-92 -102v-373h-178z" />
<glyph unicode="&#x139;" horiz-adv-x="966" d="M154 0v1380h180v-1230h590v-150h-770zM176 1454l191 240h217l-262 -240h-146z" />
<glyph unicode="&#x13a;" horiz-adv-x="483" d="M125 1513l190 240h217l-262 -240h-145zM150 0v1454h180v-1454h-180z" />
<glyph unicode="&#x13b;" horiz-adv-x="966" d="M154 0v1380h180v-1230h590v-150h-770zM348 -371q66 10 110 43.5t44 89.5q0 66 -70 125l133 29q34 -22 58 -63t24 -89q0 -54 -23 -96t-62 -67t-84 -39t-95 -17z" />
<glyph unicode="&#x13c;" horiz-adv-x="483" d="M72 -371q66 10 109.5 43.5t43.5 89.5q0 35 -19.5 68.5t-49.5 56.5l133 29q34 -22 58 -63t24 -89q0 -71 -41 -121t-98 -72t-126 -26zM150 0v1454h180v-1454h-180z" />
<glyph unicode="&#x13d;" horiz-adv-x="966" d="M154 0v1380h180v-1230h590v-150h-770zM498 1116q66 10 109.5 43.5t43.5 89.5q0 67 -69 125l133 29q34 -22 58 -63t24 -89q0 -71 -41 -121t-98 -72t-126 -26z" />
<glyph unicode="&#x13e;" horiz-adv-x="499" d="M150 0v1454h180v-1454h-180zM412 1128q71 89 71 183q0 37 -17.5 72.5t-43.5 60.5l127 29q30 -19 52 -61t22 -93q0 -24 -3.5 -47t-10.5 -42.5t-14 -36t-18 -32t-19 -26.5t-20.5 -23t-18.5 -17.5t-17.5 -15t-12.5 -10.5z" />
<glyph unicode="&#x13f;" horiz-adv-x="966" d="M154 0v1380h180v-1230h590v-150h-770zM596 762q0 40 30 71t72 31q41 0 70 -31t29 -71q0 -42 -29.5 -73.5t-71.5 -31.5t-71 31.5t-29 73.5z" />
<glyph unicode="&#x140;" horiz-adv-x="557" d="M150 0v1454h180v-1454h-180zM420 801q0 42 28.5 72t69.5 30q40 0 67 -29.5t27 -72.5q0 -42 -27 -72.5t-69 -30.5q-41 0 -68.5 30.5t-27.5 72.5z" />
<glyph unicode="&#x141;" horiz-adv-x="974" d="M-10 426v137l172 125v692h180v-569l274 199v-140l-274 -198v-522h590v-150h-770v551z" />
<glyph unicode="&#x142;" horiz-adv-x="495" d="M18 471v141l140 119v723h180v-584l145 125v-143l-145 -125v-727h-180v590z" />
<glyph unicode="&#x143;" horiz-adv-x="1347" d="M156 0v1380h196l441 -698q161 -260 245 -449l6 3q-20 230 -20 567v577h168v-1380h-180l-439 700q-172 276 -256 461l-6 -2q13 -226 13 -569v-590h-168zM569 1454l189 240h219l-262 -240h-146z" />
<glyph unicode="&#x144;" horiz-adv-x="1136" d="M141 991h160l10 -164h4q41 77 127 131t201 54q45 0 89.5 -11t92.5 -40.5t84.5 -75t60 -122t23.5 -173.5v-590h-180v571q0 131 -54.5 212t-174.5 81q-85 0 -150.5 -53t-91.5 -131q-12 -34 -12 -84v-596h-180v723q0 145 -9 268zM471 1126l180 293h197l-250 -293h-127z" />
<glyph unicode="&#x145;" horiz-adv-x="1347" d="M156 0v1380h196l441 -698q161 -260 245 -449l6 3q-20 230 -20 567v577h168v-1380h-180l-439 700q-172 276 -256 461l-6 -2q13 -226 13 -569v-590h-168zM518 -369q66 10 110 43.5t44 89.5q0 66 -70 125l133 29q34 -22 58 -62.5t24 -88.5q0 -54 -23 -96t-62 -67.5 t-84 -39.5t-95 -17z" />
<glyph unicode="&#x146;" horiz-adv-x="1136" d="M141 991h160l10 -164h4q41 77 127 131t201 54q45 0 89.5 -11t92.5 -40.5t84.5 -75t60 -122t23.5 -173.5v-590h-180v571q0 131 -54.5 212t-174.5 81q-85 0 -150.5 -53t-91.5 -131q-12 -34 -12 -84v-596h-180v723q0 145 -9 268zM418 -367q66 10 109.5 44t43.5 90 q0 70 -69 124l133 29q34 -22 58 -62.5t24 -88.5q0 -54 -23 -96t-62 -67.5t-84 -39.5t-95 -17z" />
<glyph unicode="&#x147;" horiz-adv-x="1347" d="M156 0v1380h196l441 -698q161 -260 245 -449l6 3q-20 230 -20 567v577h168v-1380h-180l-439 700q-172 276 -256 461l-6 -2q13 -226 13 -569v-590h-168zM395 1677h152l131 -141h4l129 141h145l-211 -233h-135z" />
<glyph unicode="&#x148;" horiz-adv-x="1136" d="M141 991h160l10 -164h4q41 77 127 131t201 54q45 0 89.5 -11t92.5 -40.5t84.5 -75t60 -122t23.5 -173.5v-590h-180v571q0 131 -54.5 212t-174.5 81q-85 0 -150.5 -53t-91.5 -131q-12 -34 -12 -84v-596h-180v723q0 145 -9 268zM309 1419h137l121 -194h4l121 194h135 l-192 -293h-129z" />
<glyph unicode="&#x149;" horiz-adv-x="1136" d="M37 1157q22 25 36 44.5t27 53.5t13 70q0 68 -64 121l131 35q28 -17 50 -57.5t22 -90.5q0 -39 -12 -75.5t-25.5 -58.5t-38 -47.5t-33 -32t-28.5 -21.5zM141 991h160l10 -164h4q41 77 127 131t201 54q45 0 89.5 -11t92.5 -40.5t84.5 -75t60 -122t23.5 -173.5v-590h-180v571 q0 131 -54.5 212t-174.5 81q-85 0 -150.5 -53t-91.5 -131q-12 -34 -12 -84v-596h-180v723q0 145 -9 268z" />
<glyph unicode="&#x14a;" horiz-adv-x="1347" d="M156 0v1380h196l441 -698q161 -260 245 -449l6 3q-20 230 -20 567v577h168v-1302q0 -427 -395 -486l-37 140q124 25 187 86.5t73 169.5l-447 712q-172 276 -256 461l-6 -2q13 -226 13 -569v-590h-168z" />
<glyph unicode="&#x14b;" horiz-adv-x="1136" d="M141 991h160l10 -164h4q41 77 127 131t201 54q45 0 89.5 -11t92.5 -40.5t84.5 -75t60 -122t23.5 -173.5v-469q0 -115 -29.5 -204.5t-83.5 -147t-122.5 -91t-153.5 -45.5l-35 144q124 25 184 105t60 222v467q0 131 -54.5 212t-174.5 81q-85 0 -150.5 -53t-91.5 -131 q-12 -34 -12 -84v-596h-180v723q0 145 -9 268z" />
<glyph unicode="&#x14c;" horiz-adv-x="1411" d="M74 680q0 162 48 298t133 229.5t203 145.5t255 52q187 0 328.5 -89t217.5 -247.5t76 -363.5q0 -173 -50.5 -312.5t-138 -229.5t-203.5 -138t-249 -48q-182 0 -323 88t-219 248t-78 367zM262 684q0 -112 30 -213t85 -178.5t140 -123.5t188 -46q137 0 239 78.5t152.5 207 t50.5 287.5q0 84 -17 164.5t-53 153t-86.5 127.5t-124 87t-159.5 32q-108 0 -194.5 -47.5t-140 -128t-82 -183t-28.5 -217.5zM461 1513v113h491v-113h-491z" />
<glyph unicode="&#x14d;" horiz-adv-x="1124" d="M78 487q0 121 38.5 221t105 166t156 102t191.5 36q213 0 345.5 -141t132.5 -367q0 -106 -28.5 -195t-76.5 -149.5t-112 -102.5t-134 -61t-143 -19q-204 0 -339.5 140t-135.5 370zM262 494q0 -164 84 -272.5t215 -108.5q129 0 215 109t86 276q0 66 -17 130.5t-51 121.5 t-93.5 92t-135.5 35t-136 -33.5t-95.5 -89t-53.5 -122t-18 -138.5zM332 1200v117h461v-117h-461z" />
<glyph unicode="&#x14e;" horiz-adv-x="1411" d="M74 680q0 162 48 298t133 229.5t203 145.5t255 52q187 0 328.5 -89t217.5 -247.5t76 -363.5q0 -173 -50.5 -312.5t-138 -229.5t-203.5 -138t-249 -48q-182 0 -323 88t-219 248t-78 367zM262 684q0 -112 30 -213t85 -178.5t140 -123.5t188 -46q137 0 239 78.5t152.5 207 t50.5 287.5q0 84 -17 164.5t-53 153t-86.5 127.5t-124 87t-159.5 32q-108 0 -194.5 -47.5t-140 -128t-82 -183t-28.5 -217.5zM451 1700h106q9 -42 44.5 -71.5t103.5 -29.5q128 0 147 101h104q-3 -97 -66.5 -157t-189.5 -60q-123 0 -184.5 59.5t-64.5 157.5z" />
<glyph unicode="&#x14f;" horiz-adv-x="1124" d="M78 487q0 121 38.5 221t105 166t156 102t191.5 36q213 0 345.5 -141t132.5 -367q0 -106 -28.5 -195t-76.5 -149.5t-112 -102.5t-134 -61t-143 -19q-204 0 -339.5 140t-135.5 370zM262 494q0 -164 84 -272.5t215 -108.5q129 0 215 109t86 276q0 66 -17 130.5t-51 121.5 t-93.5 92t-135.5 35t-136 -33.5t-95.5 -89t-53.5 -122t-18 -138.5zM307 1397h107q9 -63 47.5 -102.5t97.5 -39.5q69 0 107 41.5t43 100.5h106q0 -116 -69.5 -186t-184.5 -70q-126 0 -190 74.5t-64 181.5z" />
<glyph unicode="&#x150;" horiz-adv-x="1411" d="M74 680q0 162 48 298t133 229.5t203 145.5t255 52q187 0 328.5 -89t217.5 -247.5t76 -363.5q0 -173 -50.5 -312.5t-138 -229.5t-203.5 -138t-249 -48q-182 0 -323 88t-219 248t-78 367zM262 684q0 -112 30 -213t85 -178.5t140 -123.5t188 -46q137 0 239 78.5t152.5 207 t50.5 287.5q0 84 -17 164.5t-53 153t-86.5 127.5t-124 87t-159.5 32q-108 0 -194.5 -47.5t-140 -128t-82 -183t-28.5 -217.5zM489 1470l164 230h195l-227 -230h-132zM791 1470l163 230h195l-227 -230h-131z" />
<glyph unicode="&#x151;" horiz-adv-x="1124" d="M78 487q0 121 38.5 221t105 166t156 102t191.5 36q213 0 345.5 -141t132.5 -367q0 -106 -28.5 -195t-76.5 -149.5t-112 -102.5t-134 -61t-143 -19q-204 0 -339.5 140t-135.5 370zM262 494q0 -164 84 -272.5t215 -108.5q129 0 215 109t86 276q0 66 -17 130.5t-51 121.5 t-93.5 92t-135.5 35t-136 -33.5t-95.5 -89t-53.5 -122t-18 -138.5zM326 1141l161 278h177l-226 -278h-112zM621 1141l161 278h176l-225 -278h-112z" />
<glyph unicode="&#x152;" horiz-adv-x="1830" d="M74 680q0 168 50.5 305t140.5 228.5t215 141.5t274 50q78 0 180 -12q111 -13 131 -13h659v-149h-567v-438h535v-148h-535v-495h598v-150h-706q-38 0 -136 -12q-140 -11 -170 -11q-158 0 -285.5 54t-211 149.5t-128 223t-44.5 276.5zM262 688q0 -256 136.5 -410.5 t377.5 -154.5q125 0 201 27v1079q-91 31 -219 31q-228 0 -362 -158t-134 -414z" />
<glyph unicode="&#x153;" horiz-adv-x="1767" d="M78 489q0 236 135.5 379.5t339.5 143.5q127 0 227.5 -62.5t145.5 -173.5h4q54 116 149 176t213 60q91 0 163 -32t115 -80.5t72 -112.5t39.5 -122.5t10.5 -115.5q0 -48 -4 -84h-674q0 -164 91 -255t238 -91q140 0 265 55l34 -129q-58 -32 -146.5 -50t-174.5 -18 q-133 0 -234.5 58t-158.5 176h-4q-53 -115 -157.5 -174.5t-225.5 -59.5q-200 0 -331.5 140.5t-131.5 371.5zM262 494q0 -162 83 -271.5t210 -109.5q130 0 210.5 106t80.5 277q0 58 -10.5 112t-33.5 103.5t-56.5 86t-83 58t-109.5 21.5q-77 0 -135.5 -35.5t-91 -93 t-48.5 -122t-16 -132.5zM1012 594h508q1 36 -5 73t-23 76.5t-43 70t-70.5 50t-100.5 19.5q-63 0 -114 -27.5t-81.5 -71.5t-48 -92t-22.5 -98z" />
<glyph unicode="&#x154;" horiz-adv-x="1101" d="M156 0v1362q163 29 342 29q274 0 399 -113q109 -98 109 -264q0 -129 -72 -220t-186 -130v-7q148 -53 200 -278q75 -320 107 -379h-185q-31 55 -90 330q-31 142 -93.5 202.5t-184.5 65.5h-168v-598h-178zM334 733h182q142 0 226.5 71.5t84.5 190.5q0 129 -85 192.5 t-232 63.5q-122 0 -176 -14v-504zM428 1458l190 240h218l-263 -240h-145z" />
<glyph unicode="&#x155;" horiz-adv-x="669" d="M141 991h158l8 -196h6q34 99 110 158t167 59q17 0 49 -4v-170q-18 4 -61 4q-93 0 -158 -63.5t-84 -166.5q-6 -37 -6 -84v-528h-180v682q0 171 -9 309zM264 1126l180 293h197l-250 -293h-127z" />
<glyph unicode="&#x156;" horiz-adv-x="1101" d="M156 0v1362q163 29 342 29q274 0 399 -113q109 -98 109 -264q0 -129 -72 -220t-186 -130v-7q148 -53 200 -278q75 -320 107 -379h-185q-31 55 -90 330q-31 142 -93.5 202.5t-184.5 65.5h-168v-598h-178zM334 733h182q142 0 226.5 71.5t84.5 190.5q0 129 -85 192.5 t-232 63.5q-122 0 -176 -14v-504zM399 -356q66 10 110 43.5t44 89.5q0 66 -70 125l133 28q34 -22 58 -62.5t24 -88.5q0 -54 -23 -96t-62 -67t-84 -39t-95 -17z" />
<glyph unicode="&#x157;" horiz-adv-x="669" d="M88 -371q66 10 110 43.5t44 89.5q0 70 -70 125l133 29q34 -22 58 -63t24 -89q0 -54 -23 -96t-62 -67t-84 -39t-95 -17zM141 991h158l8 -196h6q34 99 110 158t167 59q17 0 49 -4v-170q-18 4 -61 4q-93 0 -158 -63.5t-84 -166.5q-6 -37 -6 -84v-528h-180v682q0 171 -9 309z " />
<glyph unicode="&#x158;" horiz-adv-x="1101" d="M156 0v1362q163 29 342 29q274 0 399 -113q109 -98 109 -264q0 -129 -72 -220t-186 -130v-7q148 -53 200 -278q75 -320 107 -379h-185q-31 55 -90 330q-31 142 -93.5 202.5t-184.5 65.5h-168v-598h-178zM258 1694h152l131 -142h4l129 142h145l-209 -234h-137zM334 733 h182q142 0 226.5 71.5t84.5 190.5q0 129 -85 192.5t-232 63.5q-122 0 -176 -14v-504z" />
<glyph unicode="&#x159;" horiz-adv-x="669" d="M113 1419h137l121 -194h4l121 194h135l-193 -293h-129zM141 991h158l8 -196h6q34 99 110 158t167 59q17 0 49 -4v-170q-18 4 -61 4q-93 0 -158 -63.5t-84 -166.5q-6 -37 -6 -84v-528h-180v682q0 171 -9 309z" />
<glyph unicode="&#x15a;" horiz-adv-x="1009" d="M86 68l47 149q141 -90 318 -90q134 0 211 64.5t77 170.5q0 95 -60 157.5t-200 115.5q-178 65 -271 159.5t-93 233.5q0 163 123.5 269t322.5 106q188 0 303 -68l-49 -145q-104 65 -260 65q-130 0 -195 -62.5t-65 -143.5q0 -93 62.5 -151t211.5 -116q181 -70 266 -163.5 t85 -241.5q0 -81 -30 -152.5t-88 -127t-152 -88t-212 -32.5q-97 0 -195.5 26.5t-156.5 64.5zM422 1458l188 240h219l-262 -240h-145z" />
<glyph unicode="&#x15b;" horiz-adv-x="811" d="M82 47l43 135q47 -28 112 -48.5t128 -20.5q93 0 141.5 40.5t48.5 106.5q0 63 -41 103t-141 77q-264 97 -264 281q0 124 94 207.5t248 83.5q147 0 241 -62l-43 -131q-94 60 -203 60q-77 0 -120 -39t-43 -97q0 -59 41.5 -94t144.5 -76q132 -49 196 -119.5t64 -177.5 q0 -134 -99 -216.5t-270 -82.5q-158 0 -278 70zM322 1126l178 293h198l-249 -293h-127z" />
<glyph unicode="&#x15c;" horiz-adv-x="1009" d="M86 68l47 149q141 -90 318 -90q134 0 211 64.5t77 170.5q0 95 -60 157.5t-200 115.5q-178 65 -271 159.5t-93 233.5q0 163 123.5 269t322.5 106q188 0 303 -68l-49 -145q-104 65 -260 65q-130 0 -195 -62.5t-65 -143.5q0 -93 62.5 -151t211.5 -116q181 -70 266 -163.5 t85 -241.5q0 -81 -30 -152.5t-88 -127t-152 -88t-212 -32.5q-97 0 -195.5 26.5t-156.5 64.5zM227 1460l211 234h135l215 -234h-151l-129 142h-4l-131 -142h-146z" />
<glyph unicode="&#x15d;" horiz-adv-x="811" d="M82 47l43 135q47 -28 112 -48.5t128 -20.5q93 0 141.5 40.5t48.5 106.5q0 63 -41 103t-141 77q-264 97 -264 281q0 124 94 207.5t248 83.5q147 0 241 -62l-43 -131q-94 60 -203 60q-77 0 -120 -39t-43 -97q0 -59 41.5 -94t144.5 -76q132 -49 196 -119.5t64 -177.5 q0 -134 -99 -216.5t-270 -82.5q-158 0 -278 70zM154 1126l192 293h125l197 -293h-138l-120 193h-4l-117 -193h-135z" />
<glyph unicode="&#x15e;" horiz-adv-x="1009" d="M86 68l47 149q141 -90 318 -90q134 0 211 64.5t77 170.5q0 95 -60 157.5t-200 115.5q-178 65 -271 159.5t-93 233.5q0 163 123.5 269t322.5 106q188 0 303 -68l-49 -145q-104 65 -260 65q-130 0 -195 -62.5t-65 -143.5q0 -93 62.5 -151t211.5 -116q181 -70 266 -163.5 t85 -241.5q0 -144 -91.5 -251t-265.5 -138l-57 -90q61 -9 102 -49t41 -95q0 -82 -60.5 -123t-150.5 -41q-83 0 -141 35l29 88q58 -28 112 -28q37 0 60.5 15.5t23.5 47.5q0 70 -157 86l81 143h-14q-89 0 -188 26.5t-158 64.5z" />
<glyph unicode="&#x15f;" horiz-adv-x="811" d="M82 47l43 135q47 -28 112 -48.5t128 -20.5q93 0 141.5 40.5t48.5 106.5q0 63 -41 103t-141 77q-264 97 -264 281q0 124 94 207.5t248 83.5q147 0 241 -62l-43 -129q-98 58 -203 58q-77 0 -120 -39t-43 -97q0 -59 41.5 -94t144.5 -76q132 -49 196 -119.5t64 -177.5 q0 -110 -69.5 -186.5t-194.5 -99.5l-55 -92q59 -8 101 -46.5t42 -95.5q0 -85 -60.5 -125.5t-154.5 -40.5q-78 0 -139 35l30 88q54 -28 111 -28q38 0 63.5 15t24.5 48q0 73 -160 86l82 146h-6q-143 0 -262 67z" />
<glyph unicode="&#x160;" horiz-adv-x="1009" d="M86 68l47 149q141 -90 318 -90q134 0 211 64.5t77 170.5q0 95 -60 157.5t-200 115.5q-178 65 -271 159.5t-93 233.5q0 163 123.5 269t322.5 106q188 0 303 -68l-49 -145q-104 65 -260 65q-130 0 -195 -62.5t-65 -143.5q0 -93 62.5 -151t211.5 -116q181 -70 266 -163.5 t85 -241.5q0 -81 -30 -152.5t-88 -127t-152 -88t-212 -32.5q-97 0 -195.5 26.5t-156.5 64.5zM246 1694h151l131 -142h4l130 142h145l-209 -234h-137z" />
<glyph unicode="&#x161;" horiz-adv-x="811" d="M82 47l43 135q47 -28 112 -48.5t128 -20.5q93 0 141.5 40.5t48.5 106.5q0 63 -41 103t-141 77q-264 97 -264 281q0 124 94 207.5t248 83.5q147 0 241 -62l-43 -131q-94 60 -203 60q-77 0 -120 -39t-43 -97q0 -59 41.5 -94t144.5 -76q132 -49 196 -119.5t64 -177.5 q0 -134 -99 -216.5t-270 -82.5q-158 0 -278 70zM156 1419h137l121 -194h4l121 194h135l-193 -293h-129z" />
<glyph unicode="&#x162;" horiz-adv-x="1017" d="M-2 1229v151h1022v-151h-422v-1229h-180v1229h-420zM334 -371q66 10 109.5 43.5t43.5 89.5q0 67 -69 125l133 29q34 -22 58 -63t24 -89q0 -54 -23 -96t-62 -67t-84 -39t-95 -17z" />
<glyph unicode="&#x163;" horiz-adv-x="677" d="M37 854v137h153v185l177 53v-238h258v-137h-258v-535q0 -96 31 -144t104 -48q64 0 104 12l8 -137q-73 -25 -159 -25q-125 0 -195 76q-70 79 -70 260v541h-153zM215 -381q66 10 110 43.5t44 89.5q0 70 -70 125l133 29q34 -22 58 -63t24 -89q0 -54 -23 -96t-62 -67t-84 -39 t-95 -17z" />
<glyph unicode="&#x164;" horiz-adv-x="1017" d="M-2 1229v151h1022v-151h-422v-1229h-180v1229h-420zM227 1688h152l131 -142h4l129 142h145l-208 -234h-138z" />
<glyph unicode="&#x165;" horiz-adv-x="694" d="M37 854v137h153v183l177 55v-238h260v-137h-260v-535q0 -96 31.5 -144t105.5 -48q60 0 104 12l8 -137q-73 -25 -161 -25q-125 0 -195 76q-70 79 -70 260v541h-153zM514 1180q78 57 78 153q0 68 -62 119l132 27q29 -19 50 -57.5t21 -84.5q0 -49 -18 -91t-46.5 -69 t-53.5 -43.5t-48 -25.5z" />
<glyph unicode="&#x166;" horiz-adv-x="1017" d="M-2 1229v151h1022v-151h-422v-455h254v-119h-254v-655h-180v655h-256v119h256v455h-420z" />
<glyph unicode="&#x167;" horiz-adv-x="677" d="M37 854v137h153v185l177 53v-238h258v-137h-258v-236h200v-110h-200v-197q0 -184 135 -184q64 0 104 12l8 -137q-73 -25 -159 -25q-125 0 -195 76q-70 79 -70 260v195h-135v110h135v236h-153z" />
<glyph unicode="&#x168;" horiz-adv-x="1325" d="M154 567v813h180v-819q0 -220 87.5 -329t233.5 -109q158 0 247 109t89 329v819h180v-807q0 -155 -39 -271.5t-110.5 -186.5t-164.5 -104t-208 -34q-110 0 -197.5 32.5t-155.5 100.5t-105 184t-37 273zM408 1464q-2 95 36 152t103 57q21 0 43.5 -6.5t35.5 -12.5t44 -22 q68 -37 98 -37q25 0 38 16.5t17 63.5h95q3 -198 -138 -198q-47 0 -127 39q-8 4 -21.5 11.5t-20.5 11t-17.5 7.5t-19 6t-17.5 2q-43 0 -53 -90h-96z" />
<glyph unicode="&#x169;" horiz-adv-x="1128" d="M143 412v579h181v-547q0 -317 221 -317q85 0 147 49t90 117q17 43 17 92v606h180v-719q0 -168 8 -272h-160l-10 162h-4q-41 -73 -125 -129t-203 -56q-50 0 -95.5 11.5t-92 42.5t-79.5 78t-54 125t-21 178zM311 1161q-3 99 35 156t105 57q7 0 14 -0.5t15 -2.5t13 -3 t14.5 -5t13 -5t14.5 -6.5t13.5 -6.5t16 -8t15.5 -8q4 -2 15.5 -8.5t16 -9t13.5 -6.5t14.5 -6t12.5 -3.5t14 -1.5q25 0 38.5 19t16.5 67h96q3 -206 -139 -206q-50 0 -127 45q-61 34 -88 34q-47 0 -53 -92h-99z" />
<glyph unicode="&#x16a;" horiz-adv-x="1325" d="M154 567v813h180v-819q0 -220 87.5 -329t233.5 -109q158 0 247 109t89 329v819h180v-807q0 -155 -39 -271.5t-110.5 -186.5t-164.5 -104t-208 -34q-110 0 -197.5 32.5t-155.5 100.5t-105 184t-37 273zM416 1501v113h491v-113h-491z" />
<glyph unicode="&#x16b;" horiz-adv-x="1128" d="M143 412v579h181v-547q0 -317 221 -317q85 0 147 49t90 117q17 43 17 92v606h180v-719q0 -168 8 -272h-160l-10 162h-4q-41 -73 -125 -129t-203 -56q-50 0 -95.5 11.5t-92 42.5t-79.5 78t-54 125t-21 178zM334 1200v117h461v-117h-461z" />
<glyph unicode="&#x16c;" horiz-adv-x="1325" d="M154 567v813h180v-819q0 -220 87.5 -329t233.5 -109q158 0 247 109t89 329v819h180v-807q0 -155 -39 -271.5t-110.5 -186.5t-164.5 -104t-208 -34q-110 0 -197.5 32.5t-155.5 100.5t-105 184t-37 273zM408 1694h106q9 -42 44.5 -71.5t103.5 -29.5q130 0 149 101h104 q-3 -97 -66.5 -157t-189.5 -60q-124 0 -186 59.5t-65 157.5z" />
<glyph unicode="&#x16d;" horiz-adv-x="1128" d="M143 412v579h181v-547q0 -317 221 -317q85 0 147 49t90 117q17 43 17 92v606h180v-719q0 -168 8 -272h-160l-10 162h-4q-41 -73 -125 -129t-203 -56q-50 0 -95.5 11.5t-92 42.5t-79.5 78t-54 125t-21 178zM309 1397h107q9 -63 47.5 -102.5t97.5 -39.5q69 0 107 41.5 t43 100.5h106q0 -116 -69.5 -186t-184.5 -70q-126 0 -190 74.5t-64 181.5z" />
<glyph unicode="&#x16e;" horiz-adv-x="1325" d="M154 567v813h180v-819q0 -220 87.5 -329t233.5 -109q158 0 247 109t89 329v819h180v-807q0 -155 -39 -271.5t-110.5 -186.5t-164.5 -104t-208 -34q-110 0 -197.5 32.5t-155.5 100.5t-105 184t-37 273zM459 1599q0 79 56.5 133t150.5 54q90 0 145 -53.5t55 -133.5 q0 -77 -57 -128.5t-145 -51.5q-91 0 -148 52t-57 128zM563 1599q0 -41 28 -72.5t71 -31.5q44 0 71 31t27 78q0 45 -28 76.5t-73 31.5q-44 0 -70 -33t-26 -80z" />
<glyph unicode="&#x16f;" horiz-adv-x="1128" d="M143 412v579h181v-547q0 -317 221 -317q85 0 147 49t90 117q17 43 17 92v606h180v-719q0 -168 8 -272h-160l-10 162h-4q-41 -73 -125 -129t-203 -56q-50 0 -95.5 11.5t-92 42.5t-79.5 78t-54 125t-21 178zM356 1286q0 83 58 138t153 55q91 0 147 -54.5t56 -138.5 q0 -80 -58.5 -133t-146.5 -53q-91 0 -150 53.5t-59 132.5zM461 1286q0 -43 29 -76.5t73 -33.5q48 0 77.5 32.5t29.5 79.5q0 49 -29.5 82t-79.5 33q-45 0 -72.5 -34t-27.5 -83z" />
<glyph unicode="&#x170;" horiz-adv-x="1325" d="M154 567v813h180v-819q0 -220 87.5 -329t233.5 -109q158 0 247 109t89 329v819h180v-807q0 -155 -39 -271.5t-110.5 -186.5t-164.5 -104t-208 -34q-110 0 -197.5 32.5t-155.5 100.5t-105 184t-37 273zM416 1464l164 230h194l-227 -230h-131zM717 1464l164 230h194 l-227 -230h-131z" />
<glyph unicode="&#x171;" horiz-adv-x="1128" d="M143 412v579h181v-547q0 -317 221 -317q85 0 147 49t90 117q17 43 17 92v606h180v-719q0 -168 8 -272h-160l-10 162h-4q-41 -73 -125 -129t-203 -56q-50 0 -95.5 11.5t-92 42.5t-79.5 78t-54 125t-21 178zM342 1141l162 278h176l-225 -278h-113zM637 1141l162 278h176 l-225 -278h-113z" />
<glyph unicode="&#x172;" horiz-adv-x="1325" d="M154 567v813h180v-819q0 -220 87.5 -329t233.5 -109q159 0 247.5 108.5t88.5 329.5v819h180v-807q0 -252 -102 -396t-278 -181q-50 -44 -87.5 -100t-37.5 -105q0 -43 25.5 -65.5t66.5 -22.5q45 0 92 21l29 -93q-31 -23 -78 -36t-90 -13q-85 0 -135 44t-50 120 q0 105 117 231h-12q-106 3 -190 37t-150 102t-101.5 182.5t-35.5 268.5z" />
<glyph unicode="&#x173;" horiz-adv-x="1128" d="M143 412v579h181v-547q0 -317 221 -317q85 0 147 49t90 117q17 43 17 92v606h180v-719q0 -171 8 -272l-43 6q-84 -117 -84 -201q0 -51 29.5 -78.5t75.5 -27.5q51 0 92 18l28 -94q-31 -22 -77.5 -34.5t-87.5 -12.5q-87 0 -139 46t-52 132q0 106 98 252l-10 156h-4 q-41 -73 -125 -129t-203 -56q-50 0 -95.5 11.5t-92 42.5t-79.5 78t-54 125t-21 178z" />
<glyph unicode="&#x174;" horiz-adv-x="1732" d="M31 1380h188l164 -698q58 -245 102 -477h4q24 140 113 479l184 696h187l168 -700q73 -308 96 -473h4q27 139 111 477l182 696h182l-391 -1380h-186l-174 719q-70 285 -91 450h-4q-32 -193 -106 -450l-197 -719h-186zM590 1454l209 234h137l215 -234h-152l-129 141h-4 l-131 -141h-145z" />
<glyph unicode="&#x175;" horiz-adv-x="1507" d="M37 991h184l133 -504q60 -246 72 -315h6q27 116 88 313l162 506h152l153 -495q52 -167 88 -324h6q19 121 76 322l141 497h179l-320 -991h-164l-151 473q-57 180 -88 326h-4q-30 -144 -91 -328l-159 -471h-164zM496 1126l194 293h123l197 -293h-138l-118 193h-4l-119 -193 h-135z" />
<glyph unicode="&#x176;" horiz-adv-x="1107" d="M25 1380h204l195 -381q113 -231 137 -284h4q13 32 31 70t32 65t39 75t38 74l198 381h201l-461 -792v-588h-180v586zM274 1454l209 234h138l215 -234h-152l-129 141h-4l-131 -141h-146z" />
<glyph unicode="&#x177;" horiz-adv-x="964" d="M18 991h197l215 -585q39 -102 66 -203h4q6 19 17.5 60t23 78t22.5 69l197 581h190l-270 -706q-100 -263 -175 -402t-165 -219q-114 -96 -221 -115l-45 150q84 26 157 88q92 74 152 201q14 32 14 43q0 15 -14 47zM229 1126l193 293h125l196 -293h-137l-119 193h-4 l-118 -193h-136z" />
<glyph unicode="&#x178;" horiz-adv-x="1107" d="M25 1380h204l195 -381q113 -231 137 -284h4q13 32 31 70t32 65t39 75t38 74l198 381h201l-461 -792v-588h-180v586zM283 1567q0 42 29 72t71 30t70 -29.5t28 -72.5q0 -44 -27.5 -74.5t-72.5 -30.5q-42 0 -70 31t-28 74zM662 1567q0 42 29 72t73 30q42 0 70 -29.5 t28 -72.5q0 -44 -28 -74.5t-74 -30.5q-42 0 -70 31t-28 74z" />
<glyph unicode="&#x179;" horiz-adv-x="1132" d="M61 0v104l764 1121v6h-698v149h932v-108l-762 -1116v-6h772v-150h-1008zM475 1454l191 240h217l-262 -240h-146z" />
<glyph unicode="&#x17a;" horiz-adv-x="876" d="M37 0v104l446 584q38 47 131 156v4h-536v143h753v-112l-442 -576q-93 -119 -127 -156v-4h578v-143h-803zM354 1126l178 293h199l-250 -293h-127z" />
<glyph unicode="&#x17b;" horiz-adv-x="1132" d="M61 0v104l764 1121v6h-698v149h932v-108l-762 -1116v-6h772v-150h-1008zM473 1579q0 40 30 71t72 31q41 0 70 -31t29 -71q0 -42 -29.5 -73t-71.5 -31t-71 31t-29 73z" />
<glyph unicode="&#x17c;" horiz-adv-x="876" d="M37 0v104l446 584q38 47 131 156v4h-536v143h753v-112l-442 -576q-93 -119 -127 -156v-4h578v-143h-803zM340 1272q0 44 30.5 75t73.5 31t72 -31t29 -75q0 -43 -29 -74t-74 -31q-43 0 -72.5 31.5t-29.5 73.5z" />
<glyph unicode="&#x17d;" horiz-adv-x="1132" d="M61 0v104l764 1121v6h-698v149h932v-108l-762 -1116v-6h772v-150h-1008zM305 1688h152l131 -142h4l129 142h145l-211 -234h-135z" />
<glyph unicode="&#x17e;" horiz-adv-x="876" d="M37 0v104l446 584q38 47 131 156v4h-536v143h753v-112l-442 -576q-93 -119 -127 -156v-4h578v-143h-803zM205 1419h137l121 -194h4l121 194h135l-193 -293h-129z" />
<glyph unicode="&#x2c6;" horiz-adv-x="614" d="M51 1126l193 293h125l196 -293h-137l-119 193h-4l-119 -193h-135z" />
<glyph unicode="&#x2da;" horiz-adv-x="614" d="M84 1286q0 83 57.5 138t151.5 55q91 0 147 -54.5t56 -138.5q0 -80 -58.5 -133t-146.5 -53q-90 0 -148.5 53.5t-58.5 132.5zM188 1286q0 -43 29.5 -76.5t73.5 -33.5q46 0 75 32.5t29 79.5q0 49 -29 82t-77 33q-46 0 -73.5 -34t-27.5 -83z" />
<glyph unicode="&#x2dc;" horiz-adv-x="614" d="M55 1161q-3 99 35 156t105 57q21 0 44.5 -7.5t36.5 -13.5t46 -24q64 -35 88 -35q25 0 38.5 19t16.5 67h96q3 -206 -139 -206q-47 0 -127 43q-59 36 -88 36q-47 0 -53 -92h-99z" />
<glyph unicode="&#x2000;" horiz-adv-x="893" />
<glyph unicode="&#x2001;" horiz-adv-x="1786" />
<glyph unicode="&#x2002;" horiz-adv-x="893" />
<glyph unicode="&#x2003;" horiz-adv-x="1786" />
<glyph unicode="&#x2004;" horiz-adv-x="595" />
<glyph unicode="&#x2005;" horiz-adv-x="446" />
<glyph unicode="&#x2006;" horiz-adv-x="297" />
<glyph unicode="&#x2007;" horiz-adv-x="297" />
<glyph unicode="&#x2008;" horiz-adv-x="223" />
<glyph unicode="&#x2009;" horiz-adv-x="357" />
<glyph unicode="&#x200a;" horiz-adv-x="99" />
<glyph unicode="&#x2010;" horiz-adv-x="628" d="M61 487v131h506v-131h-506z" />
<glyph unicode="&#x2011;" horiz-adv-x="628" d="M61 487v131h506v-131h-506z" />
<glyph unicode="&#x2012;" horiz-adv-x="628" d="M61 487v131h506v-131h-506z" />
<glyph unicode="&#x2013;" horiz-adv-x="1024" d="M61 459v123h902v-123h-902z" />
<glyph unicode="&#x2014;" horiz-adv-x="2048" d="M61 459v123h1926v-123h-1926z" />
<glyph unicode="&#x2018;" horiz-adv-x="423" d="M72 918q35 126 91.5 270.5t98.5 216.5l115 12q-33 -94 -68.5 -233t-52.5 -246z" />
<glyph unicode="&#x2019;" horiz-adv-x="423" d="M70 918q33 93 68 232t52 247l185 20q-34 -126 -91.5 -270t-99.5 -217z" />
<glyph unicode="&#x201a;" horiz-adv-x="423" d="M43 -242q33 93 68.5 233t52.5 247l184 20q-35 -126 -91.5 -270.5t-98.5 -216.5z" />
<glyph unicode="&#x201c;" horiz-adv-x="724" d="M72 918q35 126 91.5 270.5t98.5 216.5l115 12q-33 -94 -68.5 -233t-52.5 -246zM375 918q35 126 91.5 270.5t98.5 216.5l115 12q-34 -90 -69 -229t-52 -250z" />
<glyph unicode="&#x201d;" horiz-adv-x="724" d="M70 918q33 90 67.5 228.5t52.5 250.5l185 20q-34 -126 -91.5 -270t-99.5 -217zM373 918q33 94 68.5 233t52.5 246l184 20q-34 -126 -91.5 -270t-99.5 -217z" />
<glyph unicode="&#x201e;" horiz-adv-x="729" d="M41 -242q34 90 69 229.5t52 250.5l184 20q-35 -126 -91.5 -270.5t-98.5 -216.5zM344 -242q33 93 68.5 233t52.5 247l184 20q-35 -126 -91.5 -270.5t-98.5 -216.5z" />
<glyph unicode="&#x2026;" horiz-adv-x="2048" d="M219 106q0 56 34.5 93t88.5 37t87.5 -36.5t33.5 -93.5q0 -56 -34.5 -92.5t-90.5 -36.5q-52 0 -85.5 36.5t-33.5 92.5zM901 106q0 56 34.5 93t88.5 37t87.5 -36.5t33.5 -93.5q0 -56 -34.5 -92.5t-90.5 -36.5q-52 0 -85.5 36.5t-33.5 92.5zM1583 106q0 56 34.5 93t88.5 37 t87.5 -36.5t33.5 -93.5q0 -56 -34.5 -92.5t-90.5 -36.5q-52 0 -85.5 36.5t-33.5 92.5z" />
<glyph unicode="&#x202f;" horiz-adv-x="357" />
<glyph unicode="&#x2039;" horiz-adv-x="522" d="M59 516l271 377h145l-272 -377l272 -377h-145z" />
<glyph unicode="&#x203a;" horiz-adv-x="522" d="M49 139l273 377l-273 377h144l272 -377l-272 -377h-144z" />
<glyph unicode="&#x205f;" horiz-adv-x="446" />
<glyph unicode="&#x20ac;" d="M20 512v102h117v31q0 32 4 90h-121v103h136q38 216 168 346q159 170 403 170q153 0 274 -66l-40 -135q-97 57 -230 57q-165 0 -272 -110q-90 -93 -121 -262h571v-103h-590q-4 -27 -4 -86v-35h594v-102h-579q23 -173 112 -268q110 -119 289 -119q74 0 140.5 20.5 t109.5 47.5l35 -132q-53 -36 -132.5 -60t-172.5 -24q-125 0 -233 47t-183 136q-121 134 -148 352h-127z" />
<glyph unicode="&#x2122;" horiz-adv-x="1267" d="M63 1288v92h465v-92h-178v-465h-110v465h-177zM561 823l41 557h166l96 -272q10 -30 37 -141h2q2 8 17 61t22 76l96 276h160l43 -557h-111l-20 328q-1 23 -2 76t-2 80h-6q-36 -128 -47 -166l-101 -310h-114l-101 318q-5 21 -19 77.5t-20 80.5h-6q0 -54 -4 -156l-20 -328 h-107z" />
<glyph unicode="&#x25fc;" horiz-adv-x="993" d="M0 0v993h993v-993h-993z" />
</font>
</defs>
</svg>
